<svg width="602" height="739" viewBox="0 0 602 739" fill="none" xmlns="http://www.w3.org/2000/svg">
<mask id="mask0_1_572" style="mask-type:alpha" maskUnits="userSpaceOnUse" x="0" y="110" width="153" height="153">
<path fill-rule="evenodd" clip-rule="evenodd" d="M76.4994 263C118.75 263 153 228.75 153 186.499C153 144.249 118.75 110 76.4994 110C34.2502 110 0 144.249 0 186.499C0 228.75 34.2502 263 76.4994 263Z" fill="white"/>
</mask>
<g mask="url(#mask0_1_572)">
<path fill-rule="evenodd" clip-rule="evenodd" d="M190.554 184.787C191.32 185.55 192.585 185.524 193.383 184.725C194.181 183.927 194.208 182.661 193.445 181.896C192.681 181.132 191.416 181.16 190.616 181.958C189.818 182.757 189.791 184.023 190.554 184.787ZM182.079 193.262C182.843 194.027 184.109 193.999 184.908 193.2C185.706 192.402 185.733 191.136 184.97 190.373C184.204 189.608 182.938 189.636 182.141 190.435C181.343 191.232 181.316 192.498 182.079 193.262ZM173.604 201.738C174.367 202.502 175.633 202.474 176.432 201.677C177.23 200.878 177.258 199.612 176.494 198.848C175.729 198.083 174.463 198.112 173.666 198.91C172.868 199.708 172.84 200.974 173.604 201.738ZM165.129 210.214C165.892 210.977 167.158 210.95 167.957 210.152C168.754 209.354 168.783 208.087 168.017 207.323C167.254 206.56 165.988 206.587 165.19 207.385C164.393 208.183 164.363 209.45 165.129 210.214ZM156.651 218.689C157.417 219.453 158.683 219.425 159.48 218.628C160.279 217.829 160.307 216.562 159.542 215.799C158.779 215.035 157.513 215.063 156.715 215.861C155.916 216.658 155.888 217.925 156.651 218.689ZM148.176 227.165C148.942 227.928 150.207 227.901 151.005 227.103C151.803 226.305 151.83 225.038 151.067 224.274C150.303 223.51 149.038 223.538 148.238 224.336C147.44 225.134 147.413 226.401 148.176 227.165ZM139.701 235.64C140.465 236.405 141.732 236.376 142.53 235.578C143.328 234.78 143.355 233.514 142.592 232.75C141.827 231.986 140.561 232.014 139.763 232.812C138.965 233.61 138.938 234.876 139.701 235.64ZM131.226 244.115C131.989 244.88 133.256 244.852 134.054 244.054C134.852 243.256 134.88 241.99 134.116 241.226C133.352 240.461 132.085 240.489 131.288 241.288C130.49 242.086 130.461 243.352 131.226 244.115ZM122.751 252.592C123.514 253.355 124.78 253.328 125.579 252.53C126.376 251.731 126.405 250.465 125.64 249.701C124.876 248.937 123.61 248.966 122.812 249.763C122.015 250.561 121.985 251.827 122.751 252.592ZM114.275 261.067C115.039 261.831 116.305 261.803 117.102 261.006C117.901 260.206 117.928 258.94 117.164 258.177C116.401 257.413 115.135 257.441 114.337 258.239C113.538 259.036 113.51 260.304 114.275 261.067ZM105.798 269.543C106.564 270.306 107.83 270.278 108.627 269.481C109.426 268.683 109.452 267.416 108.689 266.652C107.925 265.888 106.66 265.916 105.86 266.714C105.062 267.512 105.035 268.779 105.798 269.543ZM97.3233 278.018C98.0876 278.782 99.3528 278.754 100.152 277.956C100.95 277.158 100.977 275.891 100.214 275.128C99.4488 274.364 98.1836 274.392 97.3853 275.19C96.5871 275.987 96.5602 277.254 97.3233 278.018ZM88.8482 286.493C89.6113 287.257 90.8777 287.229 91.676 286.432C92.4742 285.634 92.5023 284.368 91.738 283.603C90.9737 282.839 89.7073 282.867 88.9102 283.665C88.112 284.464 88.0839 285.73 88.8482 286.493ZM80.3731 294.969C81.1362 295.734 82.4026 295.706 83.2009 294.907C83.9979 294.109 84.0272 292.843 83.2617 292.078C82.4986 291.315 81.2322 291.343 80.434 292.14C79.6369 292.939 79.6076 294.205 80.3731 294.969ZM71.8968 303.444C72.6611 304.209 73.9275 304.181 74.7246 303.384C75.5228 302.585 75.5498 301.318 74.7866 300.555C74.0235 299.79 72.7571 299.818 71.9589 300.617C71.1595 301.415 71.1325 302.681 71.8968 303.444ZM182.458 176.691C183.224 177.455 184.49 177.428 185.287 176.629C186.085 175.831 186.112 174.565 185.349 173.801C184.586 173.036 183.32 173.064 182.52 173.863C181.722 174.661 181.695 175.927 182.458 176.691ZM173.983 185.167C174.747 185.931 176.013 185.903 176.812 185.105C177.61 184.306 177.637 183.04 176.874 182.276C176.109 181.512 174.842 181.541 174.045 182.339C173.247 183.136 173.22 184.402 173.983 185.167ZM165.508 193.642C166.271 194.406 167.538 194.378 168.336 193.581C169.134 192.783 169.162 191.516 168.398 190.752C167.633 189.988 166.367 190.016 165.57 190.814C164.772 191.612 164.744 192.879 165.508 193.642ZM157.033 202.118C157.796 202.881 159.062 202.854 159.861 202.056C160.658 201.258 160.687 199.991 159.922 199.227C159.158 198.464 157.892 198.491 157.094 199.289C156.297 200.087 156.267 201.354 157.033 202.118ZM148.557 210.593C149.321 211.357 150.587 211.329 151.384 210.532C152.183 209.733 152.211 208.466 151.446 207.703C150.683 206.939 149.417 206.967 148.619 207.765C147.82 208.562 147.792 209.829 148.557 210.593ZM140.08 219.069C140.846 219.832 142.112 219.805 142.909 219.007C143.708 218.209 143.734 216.943 142.971 216.178C142.208 215.414 140.942 215.442 140.142 216.24C139.344 217.039 139.317 218.305 140.08 219.069ZM131.605 227.544C132.37 228.309 133.636 228.281 134.434 227.482C135.232 226.684 135.259 225.418 134.496 224.655C133.731 223.89 132.466 223.918 131.667 224.717C130.869 225.514 130.842 226.78 131.605 227.544ZM123.13 236.019C123.893 236.784 125.16 236.756 125.958 235.959C126.756 235.16 126.784 233.894 126.02 233.13C125.256 232.365 123.989 232.393 123.192 233.192C122.394 233.99 122.366 235.256 123.13 236.019ZM114.655 244.496C115.418 245.259 116.685 245.232 117.483 244.434C118.28 243.635 118.309 242.369 117.544 241.605C116.781 240.842 115.514 240.87 114.716 241.667C113.919 242.465 113.89 243.731 114.655 244.496ZM106.179 252.971C106.943 253.735 108.209 253.707 109.007 252.91C109.805 252.112 109.832 250.844 109.069 250.081C108.305 249.317 107.039 249.345 106.241 250.143C105.443 250.941 105.414 252.208 106.179 252.971ZM97.7025 261.447C98.468 262.21 99.7344 262.182 100.531 261.385C101.33 260.587 101.357 259.32 100.593 258.556C99.8304 257.793 98.564 257.82 97.7646 258.618C96.9663 259.416 96.9394 260.683 97.7025 261.447ZM89.2274 269.922C89.9917 270.686 91.2581 270.658 92.0564 269.86C92.8546 269.062 92.8815 267.795 92.1184 267.032C91.3529 266.268 90.0877 266.296 89.2895 267.093C88.4912 267.891 88.4643 269.158 89.2274 269.922ZM80.7523 278.397C81.5154 279.162 82.7819 279.133 83.5801 278.336C84.3783 277.538 84.4064 276.272 83.6421 275.507C82.8778 274.743 81.6114 274.771 80.8144 275.569C80.0161 276.368 79.988 277.634 80.7523 278.397ZM72.2772 286.874C73.0403 287.638 74.3068 287.61 75.105 286.811C75.9021 286.013 75.9313 284.747 75.1658 283.983C74.4027 283.219 73.1363 283.247 72.3381 284.045C71.541 284.843 71.5118 286.109 72.2772 286.874ZM63.801 295.349C64.5653 296.113 65.8317 296.085 66.6287 295.288C67.427 294.489 67.455 293.223 66.6908 292.459C65.9276 291.694 64.6612 291.723 63.863 292.521C63.0636 293.319 63.0367 294.585 63.801 295.349ZM174.362 168.596C175.128 169.359 176.394 169.332 177.191 168.534C177.989 167.735 178.016 166.469 177.253 165.705C176.49 164.94 175.224 164.968 174.424 165.767C173.626 166.565 173.599 167.831 174.362 168.596ZM165.887 177.071C166.65 177.835 167.917 177.807 168.716 177.009C169.514 176.21 169.541 174.944 168.778 174.18C168.013 173.417 166.746 173.445 165.949 174.243C165.151 175.04 165.124 176.306 165.887 177.071ZM157.412 185.546C158.175 186.31 159.442 186.282 160.24 185.485C161.038 184.687 161.066 183.42 160.302 182.656C159.538 181.892 158.271 181.92 157.474 182.718C156.676 183.516 156.649 184.783 157.412 185.546ZM148.937 194.022C149.7 194.785 150.967 194.758 151.765 193.96C152.562 193.162 152.591 191.895 151.826 191.131C151.063 190.368 149.796 190.395 148.998 191.193C148.201 191.991 148.172 193.258 148.937 194.022ZM140.461 202.497C141.225 203.261 142.491 203.233 143.289 202.436C144.087 201.637 144.115 200.372 143.351 199.607C142.587 198.843 141.321 198.871 140.523 199.669C139.725 200.466 139.696 201.734 140.461 202.497ZM131.984 210.973C132.75 211.737 134.016 211.71 134.813 210.911C135.612 210.113 135.639 208.847 134.875 208.082C134.112 207.318 132.846 207.346 132.047 208.144C131.248 208.943 131.221 210.209 131.984 210.973ZM123.509 219.448C124.274 220.213 125.539 220.185 126.338 219.386C127.137 218.588 127.163 217.322 126.4 216.559C125.635 215.794 124.368 215.822 123.571 216.621C122.773 217.418 122.746 218.684 123.509 219.448ZM115.034 227.924C115.797 228.688 117.064 228.66 117.862 227.863C118.66 227.064 118.688 225.798 117.925 225.034C117.16 224.27 115.893 224.298 115.096 225.096C114.298 225.894 114.27 227.16 115.034 227.924ZM106.559 236.4C107.322 237.164 108.589 237.136 109.387 236.338C110.185 235.54 110.213 234.273 109.448 233.509C108.685 232.746 107.418 232.774 106.62 233.572C105.823 234.369 105.794 235.636 106.559 236.4ZM98.0829 244.875C98.8472 245.639 100.114 245.611 100.911 244.814C101.709 244.016 101.737 242.749 100.973 241.985C100.21 241.221 98.9432 241.249 98.1449 242.047C97.3467 242.845 97.3186 244.112 98.0829 244.875ZM89.6066 253.351C90.3721 254.114 91.6385 254.086 92.4356 253.289C93.2338 252.491 93.2607 251.225 92.4976 250.46C91.7345 249.697 90.4681 249.724 89.6687 250.522C88.8705 251.32 88.8435 252.587 89.6066 253.351ZM81.1315 261.826C81.8958 262.591 83.1622 262.562 83.9605 261.765C84.7587 260.966 84.7856 259.7 84.0225 258.936C83.257 258.172 81.9918 258.2 81.1936 258.997C80.3953 259.796 80.3684 261.062 81.1315 261.826ZM72.6564 270.301C73.4196 271.066 74.686 271.038 75.4842 270.241C76.2824 269.442 76.3105 268.176 75.5474 267.412C74.782 266.647 73.5155 266.675 72.7185 267.474C71.9202 268.272 71.8922 269.538 72.6564 270.301ZM64.1813 278.778C64.9445 279.542 66.2109 279.514 67.0091 278.716C67.8073 277.917 67.8354 276.651 67.07 275.887C66.3069 275.124 65.0404 275.152 64.2422 275.949C63.4451 276.747 63.4159 278.013 64.1813 278.778ZM55.7051 287.253C56.4694 288.017 57.7358 287.989 58.5328 287.191C59.3311 286.394 59.3592 285.127 58.5949 284.363C57.8318 283.599 56.5654 283.627 55.7671 284.425C54.9689 285.223 54.9408 286.49 55.7051 287.253ZM166.266 160.5C167.032 161.263 168.298 161.236 169.095 160.438C169.894 159.639 169.921 158.373 169.157 157.609C168.393 156.846 167.128 156.873 166.328 157.671C165.53 158.469 165.503 159.735 166.266 160.5ZM157.791 168.975C158.556 169.739 159.821 169.711 160.62 168.913C161.418 168.115 161.445 166.848 160.682 166.085C159.917 165.321 158.65 165.349 157.853 166.147C157.055 166.944 157.028 168.211 157.791 168.975ZM149.316 177.45C150.079 178.214 151.346 178.186 152.144 177.389C152.942 176.591 152.97 175.324 152.207 174.56C151.442 173.796 150.175 173.824 149.378 174.622C148.58 175.42 148.553 176.687 149.316 177.45ZM140.841 185.926C141.604 186.689 142.871 186.662 143.669 185.864C144.467 185.066 144.495 183.8 143.73 183.035C142.967 182.272 141.7 182.3 140.902 183.097C140.105 183.896 140.077 185.162 140.841 185.926ZM132.365 194.401C133.129 195.166 134.396 195.137 135.193 194.34C135.991 193.541 136.019 192.276 135.255 191.511C134.492 190.747 133.225 190.775 132.427 191.574C131.629 192.371 131.601 193.638 132.365 194.401ZM123.889 202.878C124.654 203.641 125.92 203.614 126.718 202.816C127.516 202.017 127.543 200.751 126.78 199.987C126.016 199.222 124.75 199.25 123.951 200.049C123.152 200.847 123.125 202.113 123.889 202.878ZM115.413 211.353C116.178 212.117 117.443 212.089 118.242 211.291C119.041 210.492 119.068 209.226 118.304 208.463C117.539 207.699 116.273 207.727 115.476 208.525C114.677 209.322 114.65 210.588 115.413 211.353ZM106.938 219.828C107.702 220.592 108.968 220.565 109.766 219.767C110.564 218.969 110.592 217.702 109.829 216.938C109.064 216.174 107.798 216.202 107 217C106.202 217.798 106.175 219.065 106.938 219.828ZM98.4633 228.304C99.2264 229.068 100.493 229.04 101.291 228.242C102.089 227.444 102.117 226.177 101.352 225.413C100.589 224.65 99.3224 224.678 98.5242 225.475C97.7271 226.273 97.6978 227.54 98.4633 228.304ZM89.987 236.779C90.7513 237.543 92.0177 237.515 92.8148 236.718C93.613 235.92 93.6411 234.652 92.8768 233.889C92.1137 233.125 90.8473 233.153 90.0491 233.951C89.2508 234.75 89.2227 236.016 89.987 236.779ZM81.5108 245.255C82.2762 246.018 83.5426 245.99 84.3397 245.193C85.1379 244.395 85.1649 243.129 84.4017 242.364C83.6386 241.601 82.3722 241.628 81.574 242.426C80.7746 243.225 80.7476 244.491 81.5108 245.255ZM73.0357 253.73C73.8 254.495 75.0664 254.467 75.8646 253.67C76.6628 252.87 76.6898 251.604 75.9266 250.841C75.1612 250.076 73.8959 250.104 73.0977 250.903C72.2995 251.7 72.2725 252.966 73.0357 253.73ZM64.5606 262.207C65.3237 262.97 66.5901 262.942 67.3883 262.145C68.1866 261.346 68.2147 260.08 67.4515 259.316C66.6861 258.551 65.4197 258.579 64.6226 259.378C63.8244 260.176 63.7963 261.442 64.5606 262.207ZM56.0855 270.682C56.8486 271.446 58.115 271.418 58.9132 270.62C59.7115 269.821 59.7396 268.555 58.9741 267.791C58.211 267.028 56.9446 267.056 56.1463 267.853C55.3493 268.651 55.32 269.917 56.0855 270.682ZM47.6092 279.157C48.3735 279.921 49.6399 279.893 50.437 279.096C51.2352 278.298 51.2633 277.031 50.499 276.267C49.7359 275.503 48.4695 275.531 47.6712 276.329C46.873 277.127 46.8449 278.394 47.6092 279.157ZM158.171 152.404C158.936 153.167 160.202 153.14 160.999 152.342C161.798 151.544 161.825 150.277 161.062 149.513C160.298 148.75 159.032 148.777 158.233 149.575C157.434 150.373 157.407 151.64 158.171 152.404ZM149.695 160.879C150.46 161.643 151.725 161.615 152.524 160.818C153.323 160.019 153.35 158.752 152.586 157.989C151.821 157.225 150.555 157.253 149.757 158.051C148.959 158.848 148.932 160.115 149.695 160.879ZM141.22 169.354C141.983 170.118 143.25 170.09 144.048 169.293C144.848 168.495 144.874 167.229 144.111 166.464C143.346 165.7 142.079 165.728 141.282 166.526C140.484 167.325 140.457 168.591 141.22 169.354ZM132.745 177.83C133.508 178.593 134.775 178.567 135.573 177.768C136.371 176.97 136.399 175.704 135.634 174.939C134.871 174.176 133.604 174.204 132.806 175.003C132.009 175.8 131.981 177.066 132.745 177.83ZM124.269 186.305C125.033 187.07 126.3 187.042 127.097 186.245C127.895 185.445 127.924 184.18 127.159 183.416C126.396 182.651 125.129 182.679 124.331 183.478C123.533 184.275 123.505 185.542 124.269 186.305ZM115.793 194.782C116.558 195.545 117.825 195.518 118.622 194.72C119.42 193.921 119.447 192.655 118.684 191.891C117.921 191.126 116.654 191.155 115.855 191.953C115.057 192.751 115.03 194.017 115.793 194.782ZM107.318 203.257C108.082 204.021 109.347 203.993 110.147 203.196C110.945 202.396 110.972 201.13 110.209 200.367C109.443 199.603 108.177 199.631 107.38 200.429C106.581 201.226 106.554 202.492 107.318 203.257ZM98.8425 211.732C99.6056 212.496 100.872 212.468 101.671 211.671C102.469 210.873 102.497 209.606 101.732 208.842C100.968 208.078 99.7016 208.106 98.9046 208.904C98.1063 209.702 98.0794 210.969 98.8425 211.732ZM90.3674 220.208C91.1305 220.972 92.3969 220.944 93.1952 220.146C93.9934 219.348 94.0215 218.081 93.2572 217.317C92.4929 216.554 91.2265 216.582 90.4283 217.379C89.6312 218.177 89.602 219.444 90.3674 220.208ZM81.8912 228.683C82.6554 229.447 83.9219 229.419 84.7189 228.622C85.5172 227.824 85.5464 226.557 84.781 225.793C84.0178 225.029 82.7514 225.057 81.9532 225.855C81.155 226.654 81.1269 227.92 81.8912 228.683ZM73.4149 237.159C74.1804 237.923 75.4468 237.896 76.2438 237.097C77.0421 236.299 77.069 235.033 76.3059 234.268C75.5427 233.505 74.2763 233.532 73.4781 234.331C72.6787 235.129 72.6518 236.395 73.4149 237.159ZM64.9398 245.635C65.7041 246.399 66.9705 246.371 67.7687 245.574C68.567 244.774 68.5939 243.508 67.8307 242.745C67.0653 241.98 65.8001 242.009 65.0018 242.807C64.2036 243.604 64.1767 244.87 64.9398 245.635ZM56.4647 254.111C57.2278 254.874 58.4942 254.846 59.2936 254.049C60.0907 253.251 60.1188 251.984 59.3557 251.22C58.5902 250.456 57.3238 250.484 56.5267 251.282C55.7285 252.08 55.7004 253.346 56.4647 254.111ZM47.9896 262.586C48.7527 263.35 50.0191 263.322 50.8174 262.524C51.6156 261.726 51.6437 260.459 50.8794 259.695C50.1151 258.932 48.8487 258.96 48.0505 259.757C47.2534 260.555 47.2241 261.822 47.9896 262.586ZM39.5133 271.061C40.2776 271.825 41.544 271.797 42.3411 271C43.1393 270.202 43.1674 268.935 42.4031 268.171C41.64 267.407 40.3736 267.435 39.5754 268.233C38.7771 269.031 38.749 270.298 39.5133 271.061ZM150.075 144.308C150.84 145.071 152.107 145.044 152.904 144.246C153.702 143.448 153.729 142.181 152.966 141.417C152.203 140.654 150.936 140.681 150.137 141.479C149.338 142.277 149.312 143.544 150.075 144.308ZM141.6 152.783C142.364 153.547 143.63 153.519 144.428 152.722C145.227 151.923 145.254 150.656 144.491 149.893C143.725 149.129 142.46 149.157 141.662 149.955C140.863 150.752 140.836 152.019 141.6 152.783ZM133.124 161.258C133.888 162.022 135.154 161.996 135.952 161.197C136.752 160.399 136.779 159.133 136.015 158.368C135.25 157.604 133.984 157.632 133.187 158.43C132.388 159.229 132.361 160.495 133.124 161.258ZM124.649 169.734C125.413 170.498 126.679 170.471 127.477 169.672C128.275 168.874 128.303 167.608 127.538 166.845C126.775 166.08 125.508 166.108 124.71 166.907C123.913 167.704 123.885 168.97 124.649 169.734ZM116.173 178.21C116.937 178.974 118.204 178.946 119.001 178.149C119.799 177.349 119.828 176.084 119.063 175.32C118.3 174.555 117.033 174.584 116.235 175.382C115.438 176.18 115.409 177.446 116.173 178.21ZM107.697 186.686C108.462 187.449 109.729 187.422 110.526 186.624C111.324 185.826 111.351 184.559 110.588 183.795C109.825 183.032 108.558 183.059 107.759 183.857C106.961 184.655 106.934 185.922 107.697 186.686ZM99.2217 195.161C99.986 195.925 101.251 195.897 102.051 195.1C102.849 194.301 102.876 193.034 102.113 192.271C101.347 191.507 100.082 191.535 99.2838 192.333C98.4855 193.13 98.4586 194.397 99.2217 195.161ZM90.7466 203.636C91.5098 204.4 92.7762 204.372 93.5756 203.575C94.3727 202.777 94.4007 201.51 93.6376 200.746C92.8721 199.982 91.6057 200.01 90.8087 200.808C90.0105 201.606 89.9835 202.873 90.7466 203.636ZM82.2715 212.112C83.0347 212.877 84.3011 212.848 85.0993 212.05C85.8975 211.252 85.9256 209.986 85.1613 209.222C84.397 208.458 83.1306 208.486 82.3324 209.283C81.5353 210.082 81.5073 211.348 82.2715 212.112ZM73.7953 220.587C74.5596 221.352 75.826 221.324 76.623 220.526C77.4213 219.728 77.4505 218.462 76.6851 217.698C75.922 216.933 74.6555 216.961 73.8573 217.76C73.0591 218.558 73.031 219.824 73.7953 220.587ZM65.319 229.064C66.0845 229.827 67.3509 229.8 68.1479 229.002C68.9462 228.203 68.9731 226.937 68.21 226.173C67.4469 225.41 66.1804 225.436 65.3822 226.235C64.5828 227.033 64.5559 228.299 65.319 229.064ZM56.8439 237.539C57.6082 238.303 58.8746 238.275 59.6728 237.478C60.4711 236.678 60.498 235.412 59.7349 234.649C58.9694 233.885 57.7042 233.913 56.9059 234.711C56.1077 235.508 56.0808 236.774 56.8439 237.539ZM48.3688 246.015C49.1319 246.778 50.3983 246.75 51.1977 245.953C51.9948 245.155 52.0229 243.888 51.2598 243.124C50.4943 242.36 49.2279 242.388 48.4308 243.186C47.6326 243.984 47.6045 245.251 48.3688 246.015ZM39.8937 254.49C40.6568 255.254 41.9232 255.226 42.7215 254.428C43.5197 253.63 43.5478 252.363 42.7835 251.599C42.0192 250.836 40.7528 250.864 39.9546 251.662C39.1575 252.459 39.1294 253.726 39.8937 254.49ZM31.4174 262.965C32.1817 263.729 33.4482 263.701 34.2452 262.904C35.0434 262.106 35.0715 260.84 34.3072 260.075C33.5441 259.311 32.2777 259.339 31.4795 260.137C30.6812 260.936 30.6532 262.202 31.4174 262.965ZM141.979 136.212C142.744 136.975 144.011 136.948 144.808 136.15C145.606 135.352 145.633 134.085 144.87 133.321C144.107 132.558 142.84 132.585 142.041 133.384C141.243 134.181 141.216 135.448 141.979 136.212ZM133.504 144.687C134.268 145.452 135.534 145.423 136.333 144.626C137.131 143.827 137.158 142.562 136.395 141.797C135.63 141.033 134.364 141.061 133.566 141.859C132.768 142.657 132.741 143.923 133.504 144.687ZM125.029 153.162C125.792 153.927 127.058 153.9 127.856 153.101C128.656 152.303 128.683 151.037 127.92 150.273C127.154 149.508 125.888 149.536 125.091 150.335C124.292 151.133 124.265 152.399 125.029 153.162ZM116.554 161.639C117.317 162.403 118.583 162.375 119.381 161.577C120.18 160.778 120.208 159.512 119.442 158.749C118.679 157.985 117.413 158.013 116.614 158.811C115.817 159.608 115.789 160.874 116.554 161.639ZM108.077 170.114C108.842 170.878 110.108 170.85 110.905 170.053C111.703 169.255 111.732 167.988 110.967 167.224C110.204 166.46 108.938 166.488 108.139 167.286C107.342 168.084 107.313 169.351 108.077 170.114ZM99.601 178.59C100.366 179.353 101.633 179.326 102.43 178.528C103.228 177.73 103.256 176.463 102.492 175.699C101.729 174.936 100.462 174.963 99.6642 175.761C98.8648 176.559 98.8378 177.826 99.601 178.59ZM91.1259 187.065C91.8902 187.829 93.1554 187.801 93.9548 187.004C94.753 186.205 94.78 184.938 94.0168 184.175C93.2514 183.411 91.9861 183.439 91.1879 184.237C90.3897 185.034 90.3627 186.301 91.1259 187.065ZM82.6508 195.54C83.4139 196.304 84.6803 196.276 85.4797 195.479C86.2779 194.681 86.3049 193.415 85.5417 192.65C84.7763 191.886 83.5099 191.914 82.7128 192.712C81.9146 193.511 81.8876 194.777 82.6508 195.54ZM74.1757 204.016C74.9388 204.781 76.2052 204.753 77.0034 203.954C77.8017 203.156 77.8298 201.89 77.0655 201.127C76.3012 200.362 75.0348 200.39 74.2365 201.187C73.4395 201.986 73.4114 203.252 74.1757 204.016ZM65.6994 212.491C66.4637 213.256 67.7301 213.228 68.5272 212.431C69.3254 211.632 69.3547 210.366 68.5892 209.602C67.8261 208.837 66.5597 208.865 65.7614 209.664C64.9632 210.462 64.9351 211.728 65.6994 212.491ZM57.2231 220.968C57.9886 221.731 59.255 221.704 60.0521 220.906C60.8503 220.107 60.8784 218.841 60.1141 218.077C59.351 217.314 58.0846 217.341 57.2863 218.139C56.4869 218.937 56.46 220.203 57.2231 220.968ZM48.748 229.443C49.5123 230.207 50.7776 230.179 51.577 229.382C52.3752 228.583 52.4021 227.316 51.639 226.553C50.8735 225.789 49.6083 225.817 48.8101 226.615C48.0118 227.412 47.9849 228.679 48.748 229.443ZM40.2729 237.919C41.0372 238.682 42.3025 238.655 43.1019 237.857C43.8989 237.059 43.927 235.792 43.1639 235.028C42.3984 234.264 41.132 234.292 40.335 235.09C39.5367 235.888 39.5086 237.155 40.2729 237.919ZM31.7978 246.394C32.561 247.158 33.8274 247.13 34.6256 246.332C35.4238 245.534 35.4519 244.267 34.6876 243.503C33.9233 242.74 32.6569 242.768 31.8587 243.566C31.0616 244.363 31.0335 245.63 31.7978 246.394ZM23.3216 254.869C24.0859 255.634 25.3523 255.605 26.1493 254.808C26.9476 254.01 26.9757 252.744 26.2114 251.979C25.4482 251.215 24.1818 251.243 23.3836 252.041C22.5854 252.84 22.5573 254.106 23.3216 254.869ZM133.884 128.116C134.648 128.879 135.915 128.852 136.712 128.054C137.51 127.256 137.538 125.99 136.774 125.225C136.011 124.462 134.744 124.489 133.946 125.289C133.147 126.086 133.12 127.352 133.884 128.116ZM125.408 136.591C126.172 137.356 127.439 137.328 128.237 136.531C129.035 135.731 129.062 134.466 128.299 133.702C127.535 132.937 126.268 132.965 125.47 133.764C124.672 134.561 124.645 135.827 125.408 136.591ZM116.933 145.066C117.696 145.831 118.962 145.804 119.762 145.006C120.56 144.207 120.587 142.941 119.824 142.177C119.058 141.412 117.792 141.44 116.995 142.239C116.197 143.037 116.17 144.303 116.933 145.066ZM108.458 153.543C109.221 154.307 110.487 154.279 111.285 153.481C112.084 152.682 112.112 151.416 111.346 150.653C110.583 149.889 109.317 149.917 108.518 150.715C107.721 151.512 107.693 152.778 108.458 153.543ZM99.9814 162.018C100.746 162.782 102.012 162.754 102.81 161.957C103.607 161.159 103.637 159.892 102.871 159.128C102.108 158.364 100.842 158.392 100.043 159.19C99.2451 159.988 99.2171 161.255 99.9814 162.018ZM91.5063 170.494C92.2705 171.257 93.537 171.23 94.334 170.432C95.1322 169.634 95.1603 168.367 94.3961 167.603C93.6329 166.84 92.3665 166.867 91.5683 167.665C90.7689 168.463 90.742 169.73 91.5063 170.494ZM83.03 178.969C83.7943 179.733 85.0607 179.705 85.8589 178.908C86.6572 178.109 86.6841 176.844 85.921 176.079C85.1555 175.315 83.8903 175.343 83.092 176.141C82.2938 176.938 82.2669 178.205 83.03 178.969ZM74.5549 187.444C75.318 188.209 76.5844 188.18 77.3838 187.383C78.1821 186.585 78.209 185.319 77.4459 184.554C76.6804 183.79 75.414 183.818 74.6169 184.616C73.8187 185.415 73.7918 186.681 74.5549 187.444ZM66.0798 195.921C66.8429 196.685 68.1093 196.657 68.9076 195.858C69.7058 195.06 69.7339 193.794 68.9696 193.031C68.2053 192.266 66.9389 192.295 66.1407 193.093C65.3436 193.89 65.3155 195.156 66.0798 195.921ZM57.6035 204.396C58.3678 205.16 59.6342 205.132 60.4313 204.335C61.2295 203.536 61.2588 202.27 60.4933 201.506C59.7302 200.742 58.4638 200.77 57.6656 201.568C56.8685 202.366 56.8392 203.632 57.6035 204.396ZM49.1284 212.872C49.8927 213.635 51.1591 213.608 51.9562 212.81C52.7544 212.012 52.7825 210.745 52.0182 209.981C51.2551 209.218 49.9887 209.245 49.1905 210.043C48.3911 210.841 48.3641 212.108 49.1284 212.872ZM40.6522 221.347C41.4165 222.111 42.6829 222.083 43.4811 221.286C44.2793 220.487 44.3062 219.22 43.5431 218.457C42.7777 217.693 41.5124 217.721 40.7142 218.519C39.916 219.316 39.889 220.583 40.6522 221.347ZM32.1771 229.823C32.9413 230.586 34.2066 230.559 35.006 229.761C35.8031 228.963 35.8311 227.697 35.068 226.932C34.3026 226.168 33.0361 226.196 32.2391 226.994C31.4408 227.792 31.4139 229.059 32.1771 229.823ZM23.702 238.298C24.4651 239.063 25.7315 239.034 26.5297 238.236C27.328 237.438 27.356 236.172 26.5918 235.408C25.8275 234.644 24.5611 234.672 23.7628 235.471C22.9658 236.268 22.9377 237.534 23.702 238.298ZM15.2257 246.773C15.99 247.538 17.2564 247.51 18.0535 246.713C18.8517 245.914 18.8798 244.648 18.1155 243.884C17.3524 243.119 16.086 243.147 15.2877 243.946C14.4907 244.744 14.4614 246.01 15.2257 246.773ZM125.788 120.02C126.552 120.784 127.819 120.757 128.616 119.958C129.414 119.16 129.442 117.894 128.678 117.129C127.915 116.366 126.648 116.393 125.85 117.193C125.051 117.99 125.024 119.256 125.788 120.02ZM117.312 128.496C118.076 129.26 119.341 129.232 120.141 128.435C120.939 127.635 120.966 126.37 120.203 125.606C119.439 124.841 118.172 124.87 117.374 125.668C116.576 126.465 116.549 127.731 117.312 128.496ZM108.837 136.971C109.6 137.735 110.866 137.708 111.666 136.91C112.464 136.111 112.491 134.845 111.728 134.081C110.962 133.318 109.696 133.345 108.899 134.143C108.101 134.941 108.074 136.207 108.837 136.971ZM100.362 145.447C101.125 146.211 102.391 146.183 103.19 145.385C103.988 144.587 104.016 143.32 103.25 142.557C102.487 141.793 101.221 141.821 100.423 142.619C99.6255 143.416 99.5975 144.683 100.362 145.447ZM91.8855 153.922C92.6498 154.686 93.9162 154.658 94.7144 153.861C95.5115 153.063 95.5407 151.796 94.7753 151.032C94.0122 150.268 92.7457 150.296 91.9475 151.094C91.1493 151.892 91.1212 153.159 91.8855 153.922ZM83.4104 162.398C84.1747 163.161 85.4411 163.134 86.2381 162.336C87.0364 161.538 87.0645 160.272 86.3002 159.507C85.537 158.744 84.2706 158.771 83.4724 159.569C82.673 160.368 82.6461 161.634 83.4104 162.398ZM74.9341 170.873C75.6984 171.638 76.9648 171.609 77.763 170.812C78.5613 170.013 78.5882 168.747 77.8251 167.983C77.0608 167.219 75.7944 167.247 74.9961 168.046C74.1979 168.843 74.171 170.109 74.9341 170.873ZM66.459 179.35C67.2221 180.113 68.4885 180.086 69.2879 179.288C70.0862 178.489 70.1131 177.223 69.35 176.459C68.5845 175.694 67.3181 175.722 66.521 176.521C65.7228 177.319 65.6959 178.585 66.459 179.35ZM57.9839 187.825C58.747 188.589 60.0134 188.561 60.8117 187.763C61.6099 186.964 61.638 185.698 60.8725 184.935C60.1094 184.171 58.843 184.199 58.0448 184.997C57.2477 185.794 57.2196 187.06 57.9839 187.825ZM49.5076 196.3C50.2719 197.064 51.5383 197.036 52.3354 196.239C53.1336 195.441 53.1629 194.174 52.3974 193.41C51.6343 192.646 50.3679 192.674 49.5697 193.472C48.7726 194.27 48.7434 195.537 49.5076 196.3ZM41.0325 204.776C41.7968 205.539 43.0632 205.512 43.8603 204.714C44.6585 203.916 44.6866 202.649 43.9223 201.885C43.1592 201.122 41.8928 201.149 41.0946 201.947C40.2952 202.745 40.2682 204.012 41.0325 204.776ZM32.5563 213.251C33.3206 214.015 34.587 213.987 35.3852 213.19C36.1834 212.391 36.2104 211.126 35.4472 210.361C34.683 209.597 33.4165 209.625 32.6183 210.423C31.8201 211.22 31.7932 212.487 32.5563 213.251ZM24.0812 221.727C24.8455 222.49 26.1107 222.464 26.9101 221.665C27.7072 220.867 27.7353 219.601 26.9721 218.836C26.2067 218.072 24.9403 218.1 24.1432 218.898C23.345 219.697 23.3181 220.963 24.0812 221.727ZM15.6061 230.202C16.3692 230.967 17.6356 230.939 18.4338 230.14C19.2321 229.342 19.2602 228.076 18.4959 227.313C17.7316 226.548 16.4652 226.576 15.6669 227.375C14.8699 228.172 14.8418 229.438 15.6061 230.202ZM7.12981 238.677C7.8941 239.442 9.16051 239.414 9.95757 238.617C10.7558 237.818 10.7851 236.552 10.0196 235.788C9.25648 235.023 7.99008 235.051 7.19184 235.85C6.39478 236.648 6.36552 237.914 7.12981 238.677ZM117.692 111.925C118.457 112.688 119.723 112.661 120.52 111.863C121.318 111.064 121.346 109.798 120.582 109.035C119.819 108.27 118.553 108.297 117.754 109.097C116.955 109.894 116.928 111.16 117.692 111.925ZM109.216 120.4C109.98 121.164 111.247 121.136 112.045 120.339C112.843 119.539 112.87 118.274 112.107 117.51C111.343 116.746 110.076 116.774 109.278 117.572C108.48 118.369 108.453 119.635 109.216 120.4ZM100.741 128.875C101.505 129.639 102.771 129.612 103.57 128.814C104.368 128.016 104.395 126.749 103.632 125.985C102.866 125.222 101.6 125.249 100.803 126.047C100.005 126.845 99.9778 128.112 100.741 128.875ZM92.2659 137.351C93.029 138.115 94.2954 138.087 95.0936 137.289C95.8919 136.491 95.92 135.224 95.1545 134.461C94.3914 133.697 93.125 133.725 92.3267 134.523C91.5297 135.32 91.5016 136.587 92.2659 137.351ZM83.7908 145.826C84.5539 146.59 85.8203 146.562 86.6185 145.765C87.4156 144.967 87.4449 143.701 86.6794 142.936C85.9163 142.172 84.6499 142.2 83.8516 142.998C83.0534 143.797 83.0253 145.063 83.7908 145.826ZM75.3145 154.302C76.0788 155.065 77.3452 155.039 78.1423 154.24C78.9405 153.442 78.9686 152.176 78.2043 151.411C77.4412 150.648 76.1748 150.675 75.3765 151.475C74.5783 152.272 74.5502 153.538 75.3145 154.302ZM66.8382 162.777C67.6025 163.542 68.8689 163.514 69.6672 162.717C70.4654 161.917 70.4923 160.652 69.7292 159.888C68.9649 159.123 67.6985 159.151 66.9003 159.95C66.102 160.747 66.0751 162.013 66.8382 162.777ZM58.3631 171.254C59.1274 172.017 60.3927 171.99 61.1921 171.192C61.9903 170.393 62.0172 169.127 61.2541 168.363C60.4886 167.6 59.2222 167.627 58.4252 168.425C57.6269 169.223 57.6 170.489 58.3631 171.254ZM49.888 179.729C50.6512 180.493 51.9176 180.465 52.7158 179.667C53.514 178.868 53.5421 177.602 52.7767 176.839C52.0135 176.075 50.7471 176.103 49.9489 176.901C49.1518 177.698 49.1237 178.964 49.888 179.729ZM41.4118 188.204C42.1761 188.968 43.4425 188.94 44.2395 188.143C45.0378 187.345 45.067 186.078 44.3016 185.314C43.5384 184.55 42.272 184.578 41.4738 185.376C40.6767 186.174 40.6475 187.441 41.4118 188.204ZM32.9367 196.68C33.701 197.443 34.9674 197.416 35.7644 196.618C36.5627 195.82 36.5908 194.553 35.8265 193.789C35.0633 193.026 33.7969 193.053 32.9987 193.852C32.2005 194.649 32.1724 195.916 32.9367 196.68ZM24.4604 205.155C25.2247 205.919 26.4911 205.891 27.2893 205.094C28.0876 204.295 28.1145 203.03 27.3514 202.265C26.5871 201.501 25.3207 201.529 24.5224 202.327C23.7242 203.125 23.6973 204.392 24.4604 205.155ZM15.9853 213.631C16.7496 214.395 18.0148 214.368 18.8142 213.569C19.6113 212.771 19.6394 211.505 18.8763 210.74C18.1108 209.977 16.8444 210.004 16.0473 210.803C15.2491 211.601 15.2222 212.867 15.9853 213.631ZM7.5102 222.107C8.27332 222.871 9.53973 222.843 10.338 222.045C11.1362 221.246 11.1643 219.98 10.4 219.217C9.63571 218.452 8.3693 218.481 7.57106 219.279C6.774 220.076 6.74591 221.342 7.5102 222.107ZM-0.966068 230.582C-0.201775 231.346 1.06463 231.318 1.86169 230.521C2.6611 229.723 2.68919 228.456 1.92373 227.692C1.16061 226.928 -0.105801 226.956 -0.904034 227.754C-1.7011 228.552 -1.73036 229.819 -0.966068 230.582ZM109.596 103.829C110.361 104.592 111.627 104.565 112.424 103.767C113.222 102.968 113.249 101.702 112.486 100.939C111.723 100.175 110.457 100.202 109.658 101.001C108.859 101.798 108.832 103.064 109.596 103.829ZM101.12 112.304C101.884 113.068 103.151 113.04 103.949 112.243C104.747 111.444 104.774 110.178 104.011 109.414C103.247 108.65 101.98 108.678 101.182 109.476C100.384 110.274 100.357 111.539 101.12 112.304ZM92.6451 120.779C93.4094 121.543 94.6746 121.516 95.474 120.718C96.2722 119.92 96.2992 118.653 95.5361 117.889C94.7706 117.126 93.5054 117.153 92.7071 117.951C91.9089 118.749 91.882 120.016 92.6451 120.779ZM84.17 129.255C84.9331 130.019 86.1995 129.991 86.9978 129.193C87.796 128.395 87.8241 127.128 87.0598 126.365C86.2955 125.601 85.0291 125.629 84.2309 126.427C83.4338 127.224 83.4057 128.491 84.17 129.255ZM75.6949 137.73C76.458 138.494 77.7244 138.468 78.5227 137.669C79.3209 136.871 79.349 135.605 78.5835 134.84C77.8204 134.076 76.554 134.104 75.7558 134.902C74.9587 135.701 74.9294 136.967 75.6949 137.73ZM67.2186 146.206C67.9829 146.97 69.2493 146.943 70.0464 146.144C70.8446 145.346 70.8727 144.08 70.1084 143.317C69.3453 142.552 68.0789 142.579 67.2807 143.379C66.4824 144.176 66.4543 145.442 67.2186 146.206ZM58.7424 154.682C59.5066 155.446 60.7731 155.418 61.5713 154.621C62.3695 153.822 62.3964 152.556 61.6333 151.792C60.869 151.027 59.6026 151.056 58.8044 151.854C58.0061 152.652 57.9792 153.917 58.7424 154.682ZM50.2673 163.158C51.0315 163.921 52.2968 163.894 53.0962 163.096C53.8944 162.298 53.9213 161.031 53.1582 160.267C52.3928 159.504 51.1264 159.531 50.3293 160.329C49.5311 161.127 49.5041 162.394 50.2673 163.158ZM41.7922 171.633C42.5553 172.397 43.8217 172.369 44.6199 171.571C45.4182 170.773 45.4462 169.506 44.682 168.743C43.9177 167.979 42.6513 168.007 41.853 168.805C41.056 169.602 41.0279 170.869 41.7922 171.633ZM33.3159 180.108C34.0802 180.872 35.3466 180.845 36.1437 180.047C36.9419 179.249 36.9711 177.982 36.2057 177.218C35.4426 176.454 34.1762 176.482 33.3779 177.28C32.5809 178.078 32.5516 179.345 33.3159 180.108ZM24.8408 188.584C25.6051 189.347 26.8715 189.32 27.6685 188.522C28.4668 187.724 28.4949 186.458 27.7306 185.693C26.9675 184.93 25.7011 184.958 24.9028 185.756C24.1046 186.554 24.0765 187.82 24.8408 188.584ZM16.3645 197.059C17.1288 197.824 18.3952 197.796 19.1935 196.998C19.9917 196.199 20.0186 194.934 19.2555 194.17C18.4912 193.405 17.2248 193.433 16.4266 194.232C15.6283 195.029 15.6014 196.296 16.3645 197.059ZM7.88942 205.536C8.65371 206.299 9.91895 206.272 10.7184 205.474C11.5166 204.675 11.5435 203.409 10.7804 202.645C10.0149 201.88 8.74852 201.908 7.95145 202.707C7.15322 203.505 7.1263 204.771 7.88942 205.536ZM-0.585674 214.011C0.177444 214.775 1.44386 214.747 2.24326 213.95C3.04032 213.15 3.06841 211.884 2.30412 211.121C1.53983 210.357 0.273422 210.385 -0.524815 211.183C-1.32188 211.98 -1.34997 213.246 -0.585674 214.011ZM-9.06195 222.486C-8.29765 223.25 -7.03125 223.222 -6.23418 222.425C-5.43595 221.627 -5.40669 220.36 -6.17215 219.596C-6.93527 218.832 -8.20168 218.86 -8.99991 219.658C-9.79698 220.456 -9.82624 221.723 -9.06195 222.486ZM101.501 95.7328C102.265 96.4971 103.531 96.469 104.328 95.6708C105.127 94.8725 105.153 93.6073 104.39 92.843C103.627 92.0787 102.361 92.1056 101.563 92.9051C100.763 93.7021 100.736 94.9685 101.501 95.7328ZM93.0243 104.208C93.7886 104.972 95.0562 104.944 95.8532 104.147C96.6515 103.348 96.6784 102.082 95.9153 101.318C95.1522 100.554 93.8858 100.582 93.0863 101.38C92.2881 102.178 92.2612 103.444 93.0243 104.208ZM84.5492 112.683C85.3135 113.447 86.5787 113.42 87.3781 112.622C88.1764 111.824 88.2033 110.557 87.4402 109.793C86.6747 109.03 85.4095 109.057 84.6112 109.855C83.813 110.653 83.7861 111.92 84.5492 112.683ZM76.0741 121.159C76.8372 121.924 78.1036 121.895 78.9019 121.097C79.7001 120.299 79.7282 119.033 78.9639 118.269C78.1996 117.505 76.9332 117.533 76.135 118.331C75.3379 119.129 75.3098 120.395 76.0741 121.159ZM67.599 129.634C68.3621 130.399 69.6285 130.372 70.4268 129.573C71.225 128.775 71.2531 127.509 70.4876 126.745C69.7245 125.98 68.4581 126.008 67.6599 126.807C66.8628 127.605 66.8335 128.871 67.599 129.634ZM59.1227 138.111C59.887 138.874 61.1534 138.847 61.9505 138.049C62.7487 137.25 62.7768 135.984 62.0125 135.22C61.2494 134.457 59.983 134.483 59.1848 135.283C58.3854 136.08 58.3584 137.346 59.1227 138.111ZM50.6465 146.586C51.4108 147.35 52.6772 147.322 53.4754 146.525C54.2736 145.727 54.3006 144.46 53.5374 143.696C52.7743 142.932 51.5067 142.96 50.7085 143.758C49.9103 144.556 49.8834 145.821 50.6465 146.586ZM42.1714 155.062C42.9357 155.825 44.2009 155.798 45.0003 155C45.7985 154.202 45.8255 152.935 45.0623 152.171C44.2969 151.408 43.0305 151.435 42.2334 152.234C41.4352 153.031 41.4083 154.298 42.1714 155.062ZM33.6963 163.537C34.4594 164.301 35.7258 164.273 36.524 163.475C37.3223 162.677 37.3504 161.41 36.5861 160.647C35.8218 159.883 34.5554 159.911 33.7571 160.709C32.9601 161.506 32.932 162.773 33.6963 163.537ZM25.22 172.012C25.9843 172.776 27.2507 172.749 28.0489 171.951C28.846 171.153 28.8753 169.887 28.1098 169.122C27.3467 168.359 26.0803 168.386 25.282 169.184C24.485 169.983 24.4557 171.249 25.22 172.012ZM16.7449 180.488C17.5092 181.251 18.7756 181.225 19.5727 180.426C20.3709 179.628 20.399 178.362 19.6347 177.599C18.8716 176.834 17.6052 176.862 16.8069 177.661C16.0087 178.458 15.9806 179.724 16.7449 180.488ZM8.26864 188.963C9.03293 189.728 10.2993 189.7 11.0976 188.903C11.8958 188.103 11.9227 186.838 11.1596 186.074C10.3953 185.309 9.12891 185.337 8.33067 186.136C7.53244 186.933 7.50552 188.2 8.26864 188.963ZM-0.206459 197.44C0.557835 198.203 1.82307 198.176 2.62247 197.378C3.42071 196.579 3.44763 195.313 2.68451 194.549C1.91905 193.784 0.653809 193.813 -0.144424 194.611C-0.942661 195.409 -0.969578 196.675 -0.206459 197.44ZM-8.68155 205.915C-7.91843 206.679 -6.65202 206.651 -5.85262 205.854C-5.05556 205.055 -5.02747 203.788 -5.79176 203.025C-6.55605 202.261 -7.82246 202.289 -8.62069 203.087C-9.41776 203.884 -9.44585 205.151 -8.68155 205.915ZM-17.1578 214.39C-16.3935 215.154 -15.1271 215.126 -14.3301 214.329C-13.5307 213.531 -13.5026 212.264 -14.268 211.5C-15.0311 210.736 -16.2976 210.764 -17.0958 211.562C-17.8929 212.36 -17.9221 213.627 -17.1578 214.39ZM93.4047 87.6369C94.169 88.4012 95.4354 88.3731 96.2325 87.5749C97.0307 86.7767 97.0588 85.5103 96.2945 84.7472C95.5314 83.9829 94.265 84.0098 93.4667 84.8092C92.6673 85.6063 92.6404 86.8727 93.4047 87.6369ZM84.9284 96.112C85.6927 96.8763 86.9603 96.8494 87.7574 96.0512C88.5556 95.2529 88.5825 93.9865 87.8194 93.2222C87.0563 92.458 85.7899 92.486 84.9905 93.2843C84.1922 94.0825 84.1653 95.3489 84.9284 96.112ZM76.4533 104.588C77.2176 105.351 78.4829 105.324 79.2823 104.526C80.0805 103.728 80.1074 102.462 79.3443 101.698C78.5788 100.934 77.3136 100.961 76.5154 101.759C75.7171 102.558 75.6902 103.824 76.4533 104.588ZM67.9782 113.063C68.7413 113.828 70.0078 113.8 70.806 113.001C71.6042 112.203 71.6323 110.938 70.868 110.174C70.1037 109.409 68.8373 109.437 68.0391 110.236C67.242 111.034 67.2139 112.299 67.9782 113.063ZM59.5031 121.538C60.2663 122.303 61.5327 122.276 62.3309 121.478C63.1291 120.679 63.1572 119.413 62.3918 118.649C61.6286 117.884 60.3622 117.912 59.564 118.711C58.7669 119.509 58.7377 120.775 59.5031 121.538ZM51.0269 130.015C51.7912 130.779 53.0576 130.751 53.8546 129.953C54.6529 129.154 54.681 127.888 53.9167 127.124C53.1535 126.361 51.8871 126.388 51.0889 127.187C50.2895 127.984 50.2626 129.25 51.0269 130.015ZM42.5506 138.49C43.3149 139.254 44.5813 139.226 45.3795 138.429C46.1778 137.631 46.2047 136.364 45.4416 135.6C44.6784 134.836 43.4109 134.864 42.6126 135.662C41.8144 136.46 41.7875 137.726 42.5506 138.49ZM34.0755 146.966C34.8398 147.729 36.1062 147.702 36.9044 146.904C37.7027 146.106 37.7296 144.839 36.9665 144.075C36.201 143.312 34.9358 143.339 34.1375 144.138C33.3393 144.935 33.3124 146.202 34.0755 146.966ZM25.6004 155.441C26.3635 156.205 27.6299 156.177 28.4282 155.38C29.2264 154.581 29.2545 153.316 28.4902 152.551C27.7259 151.787 26.4595 151.815 25.6613 152.613C24.8642 153.412 24.8361 154.677 25.6004 155.441ZM17.1241 163.916C17.8884 164.681 19.1548 164.654 19.9531 163.855C20.7513 163.057 20.7794 161.791 20.0139 161.026C19.2508 160.262 17.9844 160.29 17.1862 161.088C16.3891 161.887 16.3598 163.153 17.1241 163.916ZM8.64903 172.393C9.41332 173.156 10.6797 173.129 11.4768 172.33C12.275 171.532 12.3031 170.266 11.5388 169.503C10.7757 168.738 9.5093 168.767 8.71106 169.565C7.91283 170.362 7.88474 171.628 8.64903 172.393ZM0.17276 180.868C0.937054 181.632 2.20346 181.604 3.00169 180.807C3.79993 180.007 3.82685 178.742 3.06373 177.978C2.29943 177.214 1.03303 177.242 0.234795 178.04C-0.563442 178.837 -0.590359 180.104 0.17276 180.868ZM-8.30234 189.344C-7.53804 190.107 -6.27164 190.08 -5.4734 189.282C-4.67517 188.484 -4.64825 187.217 -5.41137 186.453C-6.17683 185.69 -7.44207 185.717 -8.2403 186.516C-9.03854 187.313 -9.06546 188.58 -8.30234 189.344ZM-16.7774 197.819C-16.0143 198.583 -14.7479 198.555 -13.9485 197.758C-13.1514 196.959 -13.1233 195.693 -13.8876 194.929C-14.6519 194.165 -15.9183 194.193 -16.7166 194.991C-17.5136 195.788 -17.5417 197.055 -16.7774 197.819ZM-25.2537 206.294C-24.4894 207.058 -23.223 207.03 -22.4259 206.233C-21.6265 205.435 -21.5984 204.169 -22.3639 203.404C-23.127 202.64 -24.3934 202.668 -25.1917 203.466C-25.9887 204.264 -26.0168 205.531 -25.2537 206.294ZM85.3088 79.5411C86.0731 80.3054 87.3395 80.2773 88.1366 79.479C88.9348 78.6808 88.9629 77.4156 88.1986 76.6513C87.4355 75.887 86.1691 75.9139 85.3708 76.7133C84.5714 77.5104 84.5445 78.7768 85.3088 79.5411ZM76.8326 88.0162C77.5968 88.7805 78.8644 88.7535 79.6615 87.9553C80.4597 87.1571 80.4866 85.8907 79.7235 85.1264C78.9604 84.3621 77.694 84.3902 76.8946 85.1884C76.0963 85.9866 76.0694 87.253 76.8326 88.0162ZM68.3575 96.4924C69.1217 97.2567 70.3882 97.2286 71.1864 96.4304C71.9846 95.6322 72.0115 94.3658 71.2484 93.6026C70.4841 92.8383 69.2177 92.8653 68.4195 93.6635C67.6212 94.4617 67.5943 95.7281 68.3575 96.4924ZM59.8823 104.968C60.6455 105.732 61.9119 105.704 62.7101 104.905C63.5083 104.107 63.5364 102.842 62.7721 102.078C62.0079 101.313 60.7414 101.342 59.9432 102.14C59.1461 102.938 59.1181 104.203 59.8823 104.968ZM51.4072 113.443C52.1704 114.207 53.4368 114.18 54.235 113.382C55.0332 112.584 55.0613 111.317 54.2959 110.553C53.5328 109.79 52.2663 109.817 51.4681 110.615C50.6711 111.413 50.6418 112.679 51.4072 113.443ZM42.931 121.919C43.6953 122.683 44.9617 122.655 45.7588 121.857C46.557 121.059 46.5851 119.792 45.8208 119.029C45.0577 118.265 43.7913 118.292 42.993 119.091C42.1936 119.888 42.1667 121.155 42.931 121.919ZM34.4547 130.394C35.219 131.158 36.4854 131.131 37.2837 130.333C38.0819 129.535 38.1088 128.268 37.3457 127.504C36.5826 126.74 35.315 126.768 34.5179 127.566C33.7185 128.364 33.6916 129.631 34.4547 130.394ZM25.9796 138.87C26.7439 139.633 28.0103 139.606 28.8086 138.808C29.6068 138.01 29.6337 136.744 28.8706 135.979C28.1063 135.216 26.8399 135.243 26.0416 136.042C25.2434 136.84 25.2165 138.106 25.9796 138.87ZM17.5045 147.345C18.2676 148.11 19.534 148.081 20.3335 147.284C21.1305 146.485 21.1586 145.22 20.3943 144.456C19.63 143.691 18.3636 143.719 17.5654 144.518C16.7683 145.315 16.7402 146.581 17.5045 147.345ZM9.02942 155.82C9.79254 156.585 11.059 156.558 11.8572 155.76C12.6554 154.961 12.6835 153.695 11.918 152.931C11.1549 152.166 9.88852 152.194 9.09028 152.993C8.29322 153.791 8.26513 155.057 9.02942 155.82ZM0.553154 164.297C1.31744 165.06 2.58385 165.033 3.38092 164.235C4.17915 163.436 4.20724 162.17 3.44295 161.407C2.67983 160.643 1.41342 160.671 0.615185 161.469C-0.183048 162.266 -0.21114 163.532 0.553154 164.297ZM-7.92311 172.772C-7.15882 173.536 -5.89241 173.509 -5.09418 172.711C-4.29594 171.913 -4.26902 170.646 -5.03215 169.882C-5.79644 169.118 -7.06285 169.146 -7.85991 169.944C-8.65932 170.742 -8.68624 172.009 -7.92311 172.772ZM-16.3982 181.248C-15.6339 182.011 -14.3675 181.984 -13.5693 181.186C-12.771 180.388 -12.7441 179.121 -13.5072 178.357C-14.2727 177.594 -15.5379 177.621 -16.3362 178.42C-17.1344 179.217 -17.1613 180.484 -16.3982 181.248ZM-24.8733 189.723C-24.1102 190.487 -22.8438 190.459 -22.0444 189.662C-21.2473 188.863 -21.2192 187.596 -21.9835 186.833C-22.7478 186.069 -24.0142 186.097 -24.8124 186.895C-25.6095 187.692 -25.6376 188.959 -24.8733 189.723ZM-33.3496 198.198C-32.5853 198.962 -31.3189 198.934 -30.5218 198.137C-29.7224 197.339 -29.6943 196.073 -30.4598 195.308C-31.2229 194.544 -32.4893 194.572 -33.2875 195.37C-34.0846 196.169 -34.1127 197.435 -33.3496 198.198ZM77.2129 71.4452C77.9772 72.2095 79.2436 72.1814 80.0407 71.3832C80.8389 70.5849 80.867 69.3197 80.1027 68.5554C79.3396 67.7911 78.0732 67.8192 77.275 68.6175C76.4756 69.4145 76.4486 70.6809 77.2129 71.4452ZM68.7367 79.9203C69.501 80.6846 70.7685 80.6577 71.5656 79.8594C72.3638 79.0612 72.3908 77.7948 71.6276 77.0305C70.8645 76.2674 69.5981 76.2943 68.7987 77.0925C68.0005 77.8908 67.9735 79.156 68.7367 79.9203ZM60.2616 88.3966C61.0259 89.1608 62.2923 89.1328 63.0905 88.3345C63.8887 87.5363 63.9157 86.2699 63.1525 85.5068C62.3882 84.7425 61.1218 84.7694 60.3236 85.5688C59.5254 86.3659 59.4985 87.6323 60.2616 88.3966ZM51.7865 96.8716C52.5496 97.6359 53.816 97.609 54.6154 96.8096C55.4125 96.0125 55.4406 94.7461 54.6763 93.9819C53.912 93.2176 52.6456 93.2457 51.8473 94.0439C51.0503 94.8421 51.0222 96.1074 51.7865 96.8716ZM43.3114 105.347C44.0745 106.111 45.3409 106.084 46.1391 105.286C46.9374 104.488 46.9655 103.221 46.2 102.457C45.4369 101.694 44.1705 101.721 43.3722 102.519C42.5752 103.317 42.5459 104.584 43.3114 105.347ZM34.8351 113.823C35.5994 114.587 36.8658 114.559 37.6629 113.761C38.4611 112.963 38.4892 111.697 37.7249 110.933C36.9618 110.169 35.6954 110.196 34.8971 110.995C34.0977 111.792 34.0708 113.059 34.8351 113.823ZM26.3588 122.298C27.1231 123.062 28.3895 123.035 29.1878 122.237C29.986 121.438 30.0129 120.173 29.2498 119.408C28.4867 118.644 27.2191 118.672 26.422 119.47C25.6226 120.269 25.5957 121.535 26.3588 122.298ZM17.8837 130.774C18.648 131.537 19.9144 131.511 20.7127 130.712C21.5109 129.914 21.5378 128.648 20.7747 127.883C20.0104 127.12 18.744 127.147 17.9458 127.947C17.1475 128.744 17.1206 130.01 17.8837 130.774ZM9.40864 139.249C10.1718 140.014 11.4382 139.986 12.2376 139.189C13.0346 138.389 13.0627 137.124 12.2984 136.36C11.5341 135.595 10.2677 135.623 9.4695 136.422C8.67244 137.219 8.64435 138.485 9.40864 139.249ZM0.933544 147.725C1.69666 148.489 2.96307 148.462 3.76131 147.664C4.55954 146.865 4.58763 145.599 3.82217 144.835C3.05905 144.07 1.79264 144.099 0.994404 144.897C0.197342 145.695 0.16925 146.961 0.933544 147.725ZM-7.54272 156.201C-6.77843 156.965 -5.51203 156.937 -4.71496 156.139C-3.91673 155.341 -3.88864 154.075 -4.65293 153.311C-5.41605 152.547 -6.68246 152.575 -7.48069 153.373C-8.27893 154.17 -8.30702 155.436 -7.54272 156.201ZM-16.019 164.676C-15.2547 165.44 -13.9883 165.412 -13.1901 164.615C-12.3918 163.817 -12.3649 162.55 -13.128 161.786C-13.8923 161.022 -15.1587 161.05 -15.9558 161.848C-16.7552 162.646 -16.7821 163.913 -16.019 164.676ZM-24.4941 173.152C-23.7298 173.915 -22.4634 173.888 -21.6652 173.09C-20.8669 172.292 -20.84 171.025 -21.6031 170.261C-22.3674 169.498 -23.6338 169.525 -24.4321 170.323C-25.2303 171.121 -25.2572 172.388 -24.4941 173.152ZM-32.9692 181.627C-32.2061 182.391 -30.9397 182.363 -30.1403 181.566C-29.3432 180.767 -29.3151 179.501 -30.0794 178.737C-30.8437 177.973 -32.1101 178.001 -32.9083 178.799C-33.7054 179.597 -33.7335 180.863 -32.9692 181.627ZM-38.6177 190.041C-39.4148 190.84 -40.6812 190.867 -41.4455 190.102C-42.2086 189.339 -42.1805 188.073 -41.3834 187.275C-40.5852 186.476 -39.3188 186.449 -38.5557 187.213C-37.7902 187.977 -37.8183 189.243 -38.6177 190.041Z" fill="#0025B4"/>
</g>
<rect opacity="0.3" x="602" y="218" width="280" height="218" rx="33.6" transform="rotate(180 602 218)" fill="#4D8DFF"/>
<path fill-rule="evenodd" clip-rule="evenodd" d="M322 166.393L297.552 210.579C295.708 213.912 298.119 218 301.927 218H375V166.393H322Z" fill="#C9DCFF"/>
<path d="M63.3213 573.155C69.0982 584.863 71.2177 599.696 59.6224 604.446C46.6557 609.779 25.9587 601.196 19.974 581.655C16.1089 569.155 17.4389 551.739 28.2861 545.031C37.1384 539.281 56.4223 558.822 63.3213 573.155Z" fill="#F5F9FD"/>
<path d="M381.866 310.418C376.622 305.783 372.428 298.893 376.874 294.258C381.32 289.622 393.317 289.239 400.364 297.702C404.853 303.103 407.957 311.949 404.559 317.35C401.539 321.943 388.409 316.074 381.866 310.418Z" fill="#0025B4"/>
<path d="M117.472 326.694C114.715 326.401 111.916 326.192 109.117 326.066C108.895 326.13 108.658 326.046 108.525 325.858C108.392 325.67 108.392 325.418 108.525 325.229C108.658 325.041 108.895 324.958 109.117 325.021C111.621 325.021 114.195 325.297 116.712 325.567C116.966 325.594 117.219 325.621 117.472 325.648C117.613 325.658 117.744 325.727 117.832 325.839C117.919 325.95 117.955 326.094 117.932 326.234C117.897 326.472 117.71 326.659 117.472 326.694Z" fill="#09B1D9"/>
<path d="M76.1151 329.705C75.8893 329.687 75.694 329.54 75.6138 329.328C75.5336 329.04 75.7017 328.74 75.9898 328.659C78.6216 327.948 81.3787 327.321 84.3447 326.777C84.4779 326.74 84.6207 326.759 84.7394 326.83C84.858 326.901 84.942 327.018 84.9714 327.154C85.0231 327.441 84.8386 327.718 84.5536 327.781C81.7965 328.325 79.0811 328.952 76.4493 329.663L76.1151 329.705Z" fill="#09B1D9"/>
<path d="M142.203 331.377C144.876 332.088 147.55 332.841 150.223 333.677H150.599C150.876 333.677 151.101 333.453 151.101 333.176C151.101 332.898 150.876 332.674 150.599 332.674C147.884 331.796 145.169 331.043 142.537 330.332C142.387 330.281 142.222 330.297 142.086 330.378C141.949 330.458 141.855 330.594 141.827 330.75C141.79 331.022 141.946 331.282 142.203 331.377Z" fill="#09B1D9"/>
<path d="M60.3661 335.392C60.1741 335.376 60.0022 335.267 59.9066 335.099C59.7858 334.833 59.8964 334.519 60.1572 334.388C62.6637 333.259 65.2537 332.172 67.9273 331.21C68.0544 331.156 68.1981 331.157 68.3246 331.212C68.4511 331.267 68.5492 331.373 68.5957 331.503C68.6847 331.768 68.5582 332.057 68.3033 332.172C65.6715 333.134 63.0814 334.221 60.6167 335.35L60.3661 335.392Z" fill="#09B1D9"/>
<path d="M158.202 336.312C160.792 337.232 163.424 338.236 166.014 339.239L166.39 339.281C166.667 339.281 166.891 339.056 166.891 338.779C166.891 338.502 166.667 338.278 166.39 338.278C163.8 337.274 161.168 336.27 158.536 335.35C158.273 335.28 157.995 335.401 157.868 335.643C157.784 335.919 157.931 336.213 158.202 336.312Z" fill="#09B1D9"/>
<path d="M45.9121 343.756C45.7452 343.767 45.5852 343.687 45.4943 343.547C45.3999 343.453 45.3469 343.325 45.3469 343.191C45.3469 343.058 45.3999 342.93 45.4943 342.836C47.7919 341.205 50.1313 339.658 52.5542 338.278C52.7999 338.188 53.0741 338.287 53.2071 338.512C53.34 338.737 53.2939 339.025 53.0973 339.198C50.7162 340.578 48.335 342.083 46.1209 343.672C46.071 343.71 46.0143 343.739 45.9538 343.756H45.9121Z" fill="#09B1D9"/>
<path d="M181.137 345.889H181.429C181.602 345.883 181.76 345.788 181.847 345.638C181.903 345.516 181.908 345.376 181.861 345.251C181.814 345.125 181.719 345.023 181.596 344.969C179.09 343.756 176.541 342.627 173.951 341.498C173.83 341.441 173.69 341.436 173.565 341.483C173.439 341.53 173.338 341.626 173.283 341.748C173.162 342.014 173.273 342.328 173.534 342.459C176.082 343.547 178.672 344.718 181.137 345.889Z" fill="#09B1D9"/>
<path d="M33.3552 354.72C33.2539 354.75 33.1455 354.748 33.0455 354.712C32.9511 354.618 32.898 354.49 32.898 354.357C32.898 354.223 32.9511 354.096 33.0455 354.001C35.0089 351.952 37.2229 349.819 39.1446 348.189C39.3547 347.987 39.6864 347.987 39.8965 348.189C40.0981 348.399 40.0981 348.731 39.8965 348.941C37.8496 350.74 35.7191 352.663 33.881 354.67C33.7258 354.777 33.5268 354.796 33.3552 354.72Z" fill="#09B1D9"/>
<path d="M210.88 361.821H210.629C208.29 360.358 205.867 358.936 203.444 357.64C203.288 357.542 203.194 357.369 203.2 357.185C203.206 357 203.309 356.833 203.472 356.746C203.634 356.658 203.831 356.664 203.987 356.761C205.254 357.483 206.52 358.227 207.774 358.964C208.92 359.637 210.056 360.305 211.173 360.943C211.267 361.037 211.32 361.165 211.32 361.299C211.32 361.432 211.267 361.56 211.173 361.654C211.1 361.745 210.995 361.805 210.88 361.821Z" fill="#09B1D9"/>
<path d="M22.6436 367.76H22.936C23.1047 367.835 23.3022 367.802 23.4373 367.676C24.799 365.466 26.258 363.612 27.7286 361.744C27.9273 361.492 28.1261 361.239 28.3249 360.985C28.4329 360.89 28.4947 360.753 28.4947 360.609C28.4947 360.465 28.4329 360.328 28.3249 360.232C28.2309 360.138 28.1031 360.085 27.9699 360.085C27.8366 360.085 27.7088 360.138 27.6148 360.232C25.902 362.407 24.231 364.665 22.6436 367.049C22.5492 367.143 22.4962 367.271 22.4962 367.404C22.4962 367.538 22.5492 367.666 22.6436 367.76Z" fill="#09B1D9"/>
<path d="M224.958 370.896C224.866 370.941 224.758 370.941 224.666 370.896L217.731 366.212C217.489 366.062 217.414 365.744 217.564 365.502C217.714 365.259 218.032 365.184 218.274 365.334C220.641 366.84 222.981 368.387 225.292 369.976C225.469 370.18 225.469 370.483 225.292 370.687C225.223 370.808 225.097 370.887 224.958 370.896Z" fill="#09B1D9"/>
<path d="M14.7482 382.187C14.6144 382.133 14.5102 382.025 14.4622 381.889C14.4142 381.752 14.4271 381.602 14.4975 381.476C15.6672 378.925 16.9622 376.416 18.299 373.991C18.3512 373.767 18.5381 373.601 18.766 373.574C18.9939 373.548 19.2136 373.668 19.315 373.874C19.4164 374.08 19.3776 374.328 19.2181 374.493C17.8813 376.876 16.628 379.385 15.4166 381.936C15.3619 382.059 15.2604 382.155 15.1348 382.202C15.0092 382.249 14.8699 382.244 14.7482 382.187Z" fill="#09B1D9"/>
<path d="M251.401 390.969C251.509 391.011 251.628 391.011 251.736 390.969C251.853 390.976 251.969 390.946 252.07 390.886C252.164 390.791 252.217 390.663 252.217 390.53C252.217 390.397 252.164 390.269 252.07 390.175C250.566 389.019 249.184 387.881 247.822 386.759L247.82 386.757L247.816 386.755C247.061 386.133 246.312 385.517 245.553 384.905C245.322 384.778 245.033 384.836 244.868 385.042C244.703 385.249 244.71 385.544 244.885 385.742C246.5 386.897 247.956 388.112 249.418 389.331L249.419 389.332L249.423 389.335L249.428 389.34L249.429 389.34C250.08 389.884 250.733 390.429 251.401 390.969Z" fill="#09B1D9"/>
<path d="M8.85797 397.953C8.60019 397.84 8.45975 397.558 8.52377 397.284C9.40104 394.566 10.3201 391.889 11.3227 389.338C11.4499 389.096 11.7273 388.975 11.9911 389.046C12.1211 389.092 12.2262 389.19 12.2815 389.317C12.3369 389.444 12.3376 389.587 12.2835 389.715C11.3227 392.224 10.4036 394.9 9.52636 397.577C9.44524 397.865 9.1463 398.033 8.85797 397.953Z" fill="#09B1D9"/>
<path d="M264.476 401.91C264.42 401.91 264.364 401.901 264.31 401.884C262.263 400.002 260.132 398.162 258.002 396.364C257.819 396.146 257.819 395.829 258.002 395.611C258.212 395.409 258.544 395.409 258.754 395.611L265.062 401.131C265.244 401.349 265.244 401.666 265.062 401.884C264.887 402.007 264.658 402.016 264.476 401.91Z" fill="#09B1D9"/>
<path d="M4.32987 413.96C4.40984 414.08 4.5376 414.159 4.6805 414.179C4.83918 414.191 4.99547 414.134 5.10803 414.021C5.2206 413.908 5.27811 413.752 5.26535 413.593C5.85019 410.875 6.47681 408.115 7.18698 405.438C7.24195 405.164 7.07914 404.892 6.81101 404.811C6.67254 404.759 6.51824 404.771 6.38936 404.844C6.26048 404.916 6.17018 405.042 6.14262 405.188C6.00745 405.771 5.87227 406.35 5.73814 406.923L5.73785 406.925C5.20882 409.189 4.69592 411.383 4.26276 413.551C4.22544 413.691 4.24989 413.839 4.32987 413.96Z" fill="#09B1D9"/>
<path d="M288.372 425.386C288.252 425.44 288.116 425.44 287.996 425.386C286.116 423.337 284.153 421.204 282.231 419.322C282.03 419.112 282.03 418.78 282.231 418.57C282.449 418.387 282.766 418.387 282.983 418.57C283.811 419.434 284.647 420.33 285.48 421.224L285.483 421.227L285.484 421.228L285.486 421.23L285.489 421.233L285.491 421.235L285.492 421.236L285.493 421.237C286.59 422.413 287.682 423.584 288.748 424.675C288.95 424.885 288.95 425.218 288.748 425.428C288.621 425.45 288.491 425.436 288.372 425.386Z" fill="#09B1D9"/>
<path d="M1.38031 430.112C1.355 430.398 1.55624 430.654 1.83983 430.697C2.11222 430.725 2.36293 430.546 2.42467 430.279C2.75887 427.393 3.13484 424.591 3.55259 421.915C3.59094 421.78 3.56591 421.636 3.4846 421.522C3.40328 421.408 3.27454 421.337 3.13484 421.33C3.00164 421.305 2.86435 421.336 2.7542 421.415C2.64405 421.494 2.5704 421.614 2.55 421.748C2.09048 424.508 1.71451 427.31 1.38031 430.112Z" fill="#09B1D9"/>
<path d="M299.484 437.932C299.35 437.987 299.2 437.987 299.066 437.932L293.594 431.575C293.499 431.481 293.446 431.353 293.446 431.22C293.446 431.086 293.499 430.958 293.594 430.864C293.689 430.756 293.826 430.694 293.97 430.694C294.114 430.694 294.251 430.756 294.346 430.864C295.674 432.348 297.025 433.924 298.381 435.506L298.389 435.515C298.865 436.07 299.342 436.626 299.818 437.179C300.02 437.389 300.02 437.721 299.818 437.932C299.711 437.974 299.592 437.974 299.484 437.932Z" fill="#09B1D9"/>
<path d="M0.132943 447.221C0.228254 447.325 0.362524 447.383 0.503041 447.383C0.773158 447.386 1.00457 447.19 1.04611 446.923C1.09665 445.793 1.18796 444.656 1.27893 443.523C1.41354 441.848 1.54741 440.181 1.54741 438.559C1.55041 438.266 1.33612 438.015 1.04611 437.974C0.906083 437.962 0.767568 438.009 0.664315 438.105C0.561062 438.2 0.502552 438.335 0.503041 438.475C0.458119 439.069 0.409332 439.664 0.360421 440.262C0.181912 442.441 0.00174554 444.64 0.00174554 446.839C-0.00996511 446.979 0.0376332 447.118 0.132943 447.221Z" fill="#09B1D9"/>
<path d="M310.095 451.021C309.962 451.082 309.81 451.082 309.677 451.021C307.964 448.763 306.252 446.546 304.539 444.414C304.444 444.319 304.391 444.192 304.391 444.058C304.391 443.925 304.444 443.797 304.539 443.703C304.634 443.595 304.771 443.533 304.915 443.533C305.059 443.533 305.196 443.595 305.291 443.703C305.799 444.352 306.316 444.993 306.836 445.64C308.026 447.118 309.238 448.623 310.429 450.31C310.631 450.52 310.631 450.852 310.429 451.063L310.095 451.021Z" fill="#09B1D9"/>
<path d="M0.00174542 463.65C0.00174542 463.927 0.226183 464.152 0.503041 464.152H0.544816C0.685332 464.153 0.819603 464.094 0.914913 463.991C1.01022 463.887 1.05782 463.749 1.04611 463.608V455.245C1.0466 455.104 0.98809 454.97 0.884838 454.874C0.781585 454.779 0.64307 454.731 0.503041 454.743C0.226183 454.743 0.00174542 454.968 0.00174542 455.245V463.65Z" fill="#09B1D9"/>
<path d="M319.661 464.654C319.513 464.708 319.35 464.708 319.202 464.654C317.698 462.396 316.11 460.096 314.481 457.754C314.387 457.66 314.334 457.532 314.334 457.398C314.334 457.265 314.387 457.137 314.481 457.043C314.691 456.841 315.023 456.841 315.233 457.043C316.904 459.343 318.492 461.685 319.995 463.943C320.172 464.147 320.172 464.45 319.995 464.654C319.889 464.7 319.768 464.7 319.661 464.654Z" fill="#09B1D9"/>
<path d="M328.1 478.621C328.18 478.778 328.342 478.876 328.517 478.872L328.81 478.621C328.904 478.527 328.957 478.399 328.957 478.266C328.957 478.133 328.904 478.005 328.81 477.91C327.598 475.527 326.136 473.143 324.632 470.718C324.428 470.541 324.126 470.541 323.922 470.718C323.74 470.935 323.74 471.253 323.922 471.47C324.724 472.901 325.572 474.331 326.419 475.761L326.42 475.763C326.984 476.716 327.549 477.669 328.1 478.621Z" fill="#09B1D9"/>
<path d="M1.17144 480.88C0.910103 480.88 0.691916 480.68 0.67014 480.42C0.67014 478.711 0.519389 477.003 0.371838 475.331C0.273767 474.22 0.177109 473.124 0.127069 472.056C0.126227 471.771 0.344861 471.534 0.628365 471.512C0.768394 471.5 0.906909 471.548 1.01016 471.644C1.11341 471.739 1.17192 471.873 1.17144 472.014C1.17144 473.964 1.34334 475.956 1.51762 477.976C1.58634 478.773 1.65544 479.574 1.71451 480.378C1.72622 480.518 1.67862 480.657 1.58331 480.76C1.488 480.863 1.35373 480.922 1.21321 480.921L1.17144 480.88Z" fill="#09B1D9"/>
<path d="M335.953 493.342C336.062 493.515 336.25 493.625 336.455 493.634V493.592C336.715 493.461 336.826 493.147 336.705 492.882C335.494 490.414 334.199 487.905 332.862 485.396C332.717 485.151 332.407 485.059 332.152 485.187C331.976 485.391 331.976 485.694 332.152 485.898C333.489 488.407 334.784 490.916 335.953 493.342Z" fill="#09B1D9"/>
<path d="M2.92597 497.565C2.65585 497.568 2.42444 497.372 2.3829 497.105C2.0487 494.345 1.71451 491.543 1.42208 488.742C1.39812 488.602 1.43442 488.458 1.52199 488.347C1.60955 488.235 1.74021 488.166 1.8816 488.156C2.16731 488.131 2.42344 488.332 2.46645 488.616C2.75886 491.376 3.09304 494.178 3.42722 496.979C3.45118 497.119 3.41493 497.263 3.32736 497.375C3.2398 497.486 3.10914 497.555 2.96774 497.565H2.92597Z" fill="#09B1D9"/>
<path d="M342.554 508.647C342.638 508.85 342.836 508.982 343.055 508.982L343.222 508.94C343.352 508.893 343.457 508.795 343.513 508.669C343.568 508.542 343.569 508.398 343.515 508.271C342.554 505.678 341.468 503.085 340.34 500.493C340.209 500.232 339.895 500.121 339.63 500.242C339.507 500.296 339.411 500.398 339.364 500.524C339.317 500.649 339.323 500.789 339.379 500.911C340.507 503.504 341.551 506.096 342.554 508.647Z" fill="#09B1D9"/>
<path d="M5.43245 514.126C5.18519 514.129 4.97234 513.951 4.93115 513.707C4.42986 510.947 3.97034 508.145 3.55259 505.344C3.52864 505.199 3.5639 505.051 3.6504 504.933C3.73689 504.815 3.8673 504.737 4.01211 504.716C4.29782 504.691 4.55395 504.892 4.59696 505.176C4.91202 507.258 5.25084 509.34 5.59551 511.457C5.70783 512.147 5.8208 512.841 5.93374 513.54C5.98546 513.828 5.80098 514.105 5.516 514.167L5.43245 514.126Z" fill="#09B1D9"/>
<path d="M348.152 524.455C348.193 524.699 348.406 524.876 348.653 524.873L348.778 524.831C348.913 524.802 349.031 524.718 349.102 524.599C349.173 524.48 349.192 524.337 349.154 524.204C348.402 521.569 347.567 518.851 346.689 516.175C346.652 516.037 346.558 515.922 346.43 515.858C346.302 515.794 346.154 515.787 346.021 515.84C345.883 515.878 345.768 515.972 345.704 516.1C345.641 516.228 345.634 516.376 345.687 516.509C346.564 519.144 347.4 521.862 348.152 524.455Z" fill="#09B1D9"/>
<path d="M8.85797 530.56C8.61071 530.564 8.39786 530.386 8.35667 530.142C7.73005 527.382 7.14521 524.622 6.64391 521.778C6.6066 521.639 6.63105 521.49 6.71102 521.37C6.791 521.25 6.91875 521.17 7.06166 521.151C7.19486 521.127 7.33215 521.158 7.4423 521.237C7.55246 521.315 7.62611 521.435 7.6465 521.569C7.87166 522.679 8.10399 523.803 8.34053 524.947C8.67451 526.563 9.01691 528.219 9.35926 529.933C9.39701 530.066 9.37803 530.209 9.30683 530.328C9.23563 530.447 9.11854 530.531 8.98329 530.56H8.85797Z" fill="#09B1D9"/>
<path d="M351.493 540.68C351.553 540.931 351.779 541.106 352.037 541.099L352.12 541.057C352.254 541.036 352.374 540.963 352.453 540.852C352.531 540.742 352.562 540.605 352.538 540.471C352.12 537.628 351.619 534.868 350.992 532.108C350.93 531.822 350.653 531.638 350.366 531.689C350.097 531.77 349.935 532.042 349.99 532.317C350.574 535.244 351.076 538.004 351.493 540.68Z" fill="#09B1D9"/>
<path d="M12.7848 547.246C12.5503 547.253 12.342 547.097 12.2835 546.87V546.451C11.5733 543.733 10.8632 541.015 10.1948 538.088C10.1631 537.805 10.3394 537.54 10.6125 537.46C10.8836 537.424 11.1439 537.58 11.2391 537.837C11.9075 540.555 12.576 543.273 13.2861 545.95V546.368C13.3664 546.656 13.1982 546.956 12.9101 547.037L12.7848 547.246Z" fill="#09B1D9"/>
<path d="M352.956 557.324C352.956 557.601 353.18 557.826 353.457 557.826L353.499 557.784C353.782 557.762 354.001 557.525 354 557.241C353.98 555.943 353.887 554.627 353.793 553.31C353.688 551.826 353.582 550.339 353.582 548.877C353.572 548.733 353.504 548.598 353.394 548.504C353.284 548.41 353.142 548.364 352.997 548.375C352.856 548.385 352.725 548.454 352.638 548.566C352.55 548.677 352.514 548.821 352.538 548.961C352.747 551.762 352.956 554.564 352.956 557.324Z" fill="#09B1D9"/>
<path d="M17.2129 563.346C16.9937 563.346 16.7959 563.214 16.7116 563.012C15.9179 560.335 15.1242 557.617 14.3722 554.941C14.3345 554.807 14.3534 554.664 14.4247 554.546C14.4959 554.427 14.6129 554.343 14.7482 554.313C14.8756 554.274 15.0133 554.288 15.1309 554.35C15.2485 554.413 15.3362 554.52 15.3748 554.648C16.1268 557.366 16.9205 560.043 17.7142 562.677C17.7982 562.954 17.6513 563.248 17.38 563.346H17.2129Z" fill="#09B1D9"/>
<path d="M352.054 574.433C352.143 574.538 352.275 574.598 352.413 574.596L352.58 574.554C352.801 574.503 352.968 574.319 352.997 574.094C353.06 573.511 353.129 572.924 353.198 572.333L353.198 572.331C353.45 570.17 353.708 567.963 353.708 565.73C353.691 565.453 353.481 565.225 353.206 565.186C353.066 565.175 352.928 565.222 352.824 565.318C352.721 565.413 352.663 565.547 352.663 565.688C352.496 568.532 352.245 571.334 351.953 574.052C351.928 574.188 351.965 574.327 352.054 574.433Z" fill="#09B1D9"/>
<path d="M22.3929 579.321C22.1671 579.303 21.9719 579.157 21.8917 578.945C21.0144 576.31 20.1371 573.675 19.3016 570.999C19.2793 570.748 19.4321 570.515 19.6708 570.435C19.9096 570.355 20.1717 570.45 20.3042 570.665C21.1397 573.341 22.017 575.976 22.8942 578.61C22.9468 578.743 22.9404 578.892 22.8766 579.019C22.8128 579.147 22.6977 579.242 22.56 579.279L22.3929 579.321Z" fill="#09B1D9"/>
<path d="M349.196 590.278C349.144 590.565 349.329 590.842 349.614 590.905L349.864 591.281C350.037 591.237 350.181 591.117 350.254 590.954C350.327 590.791 350.322 590.604 350.24 590.445C350.825 587.559 351.368 584.799 351.786 582.081C351.81 581.948 351.779 581.81 351.701 581.7C351.622 581.59 351.502 581.516 351.368 581.496C351.081 581.444 350.804 581.629 350.742 581.914C350.324 584.757 349.781 587.518 349.196 590.278Z" fill="#09B1D9"/>
<path d="M27.7401 595.087C27.5209 595.087 27.3231 594.955 27.2388 594.752C26.278 592.159 25.3172 589.525 24.3981 586.89C24.2943 586.625 24.4252 586.325 24.6906 586.221C24.9559 586.117 25.2551 586.248 25.3589 586.514C25.6792 587.392 25.9948 588.27 26.3105 589.148C26.9417 590.905 27.573 592.661 28.2414 594.418C28.3254 594.694 28.1785 594.988 27.9072 595.087H27.7401Z" fill="#09B1D9"/>
<path d="M344.893 606.503C344.809 606.78 344.956 607.074 345.227 607.172H345.394C345.614 607.172 345.811 607.04 345.896 606.838C346.773 604.203 347.608 601.485 348.36 598.809C348.43 598.531 348.261 598.251 347.984 598.181C347.708 598.112 347.427 598.28 347.358 598.558C346.606 601.192 345.812 603.869 344.893 606.503Z" fill="#09B1D9"/>
<path d="M33.9227 610.685C33.7221 610.699 33.5359 610.58 33.4632 610.392C32.3771 607.8 31.3327 605.207 30.3301 602.614C30.2614 602.483 30.2543 602.328 30.3108 602.19C30.3672 602.053 30.4813 601.948 30.6226 601.903C30.8988 601.819 31.1924 601.966 31.2909 602.238C32.2935 604.83 33.3379 607.423 34.424 609.974C34.5174 610.251 34.3926 610.554 34.1316 610.685H33.9227Z" fill="#09B1D9"/>
<path d="M338.627 621.934C338.506 622.2 338.617 622.514 338.878 622.645C339.143 622.766 339.457 622.655 339.588 622.394C340.799 619.927 341.927 617.334 343.013 614.742C343.102 614.476 342.976 614.187 342.721 614.072C342.599 614.016 342.46 614.011 342.334 614.058C342.209 614.105 342.107 614.201 342.052 614.323C340.966 616.916 339.838 619.467 338.627 621.934Z" fill="#09B1D9"/>
<path d="M40.6902 626.074C40.4929 626.076 40.313 625.961 40.2307 625.782C39.061 623.231 37.9331 620.68 36.8052 618.087C36.7488 617.965 36.7436 617.826 36.7907 617.7C36.8378 617.574 36.9333 617.473 37.0558 617.418C37.1871 617.349 37.3421 617.342 37.4791 617.399C37.6161 617.455 37.7212 617.569 37.766 617.711C38.6186 619.713 39.5226 621.715 40.4176 623.698L40.4218 623.707C40.6655 624.247 40.9086 624.785 41.1498 625.322C41.2706 625.588 41.1599 625.902 40.8991 626.033L40.6902 626.074Z" fill="#09B1D9"/>
<path d="M330.481 637.24H330.732L330.815 637.282C331.034 637.33 331.261 637.249 331.4 637.073C332.038 635.955 332.705 634.818 333.377 633.671L333.379 633.668L333.384 633.66C334.118 632.408 334.859 631.144 335.577 629.88C335.737 629.715 335.776 629.467 335.674 629.262C335.573 629.056 335.353 628.936 335.125 628.962C334.897 628.988 334.711 629.155 334.658 629.378C333.405 631.804 331.985 634.187 330.481 636.529C330.386 636.623 330.333 636.751 330.333 636.885C330.333 637.018 330.386 637.146 330.481 637.24Z" fill="#09B1D9"/>
<path d="M47.959 641.171C47.7616 641.173 47.5817 641.058 47.4995 640.878C46.2045 638.369 44.9513 635.818 43.7816 633.351C43.7252 633.229 43.72 633.09 43.7671 632.964C43.8142 632.838 43.9097 632.737 44.0322 632.682C44.2225 632.511 44.5103 632.511 44.7006 632.682L48.4185 640.209C48.546 640.464 48.4548 640.775 48.2097 640.92L47.959 641.171Z" fill="#09B1D9"/>
<path d="M320.58 650.747H320.998C321.08 650.771 321.167 650.771 321.249 650.747C323.045 648.573 324.758 646.315 326.387 644.098C326.481 644.004 326.534 643.876 326.534 643.743C326.534 643.609 326.481 643.482 326.387 643.387C326.293 643.293 326.165 643.24 326.032 643.24C325.899 643.24 325.771 643.293 325.677 643.387C324.344 645.371 322.956 647.075 321.535 648.82L321.137 649.308C321.05 649.415 320.963 649.522 320.876 649.629C320.778 649.75 320.679 649.872 320.58 649.995C320.379 650.205 320.379 650.537 320.58 650.747Z" fill="#09B1D9"/>
<path d="M55.8962 655.933C55.7102 655.934 55.5368 655.839 55.4367 655.682L55.121 655.119C53.8829 652.911 52.6065 650.634 51.2592 648.322C51.2036 648.084 51.3136 647.838 51.528 647.721C51.7424 647.604 52.0084 647.645 52.1783 647.82C53.5151 650.329 54.8936 652.797 56.3557 655.138C56.532 655.343 56.532 655.645 56.3557 655.849L55.8962 655.933Z" fill="#09B1D9"/>
<path d="M309.301 663.126C309.406 663.178 309.53 663.178 309.635 663.126C309.733 663.192 309.852 663.222 309.97 663.21C311.81 661.482 313.616 659.508 315.321 657.643L315.776 657.146C315.978 656.935 315.978 656.603 315.776 656.393C315.682 656.299 315.554 656.245 315.421 656.245C315.288 656.245 315.16 656.299 315.066 656.393C314.062 657.398 313.021 658.503 311.962 659.626L311.961 659.627C311.082 660.56 310.192 661.505 309.301 662.415C309.195 662.502 309.133 662.633 309.133 662.77C309.133 662.908 309.195 663.039 309.301 663.126Z" fill="#09B1D9"/>
<path d="M64.5018 670.235C64.3177 670.229 64.1474 670.136 64.0423 669.984C62.5801 667.684 61.0763 665.259 59.6141 662.875C59.4379 662.671 59.4379 662.368 59.6141 662.164C59.7082 662.07 59.836 662.016 59.9692 662.016C60.1025 662.016 60.2303 662.07 60.3243 662.164C61.5198 664.17 62.7745 666.177 64.0136 668.158L64.0164 668.163L64.017 668.163L64.7107 669.273C64.8869 669.477 64.8869 669.78 64.7107 669.984L64.5018 670.235Z" fill="#09B1D9"/>
<path d="M296.811 674.208C296.915 674.333 297.066 674.408 297.228 674.417L297.354 674.375C297.402 674.34 297.444 674.298 297.479 674.25L303.829 668.771C304.03 668.561 304.03 668.229 303.829 668.019C303.735 667.924 303.607 667.871 303.474 667.871C303.34 667.871 303.213 667.924 303.118 668.019C302.293 668.732 301.479 669.445 300.669 670.156L300.661 670.163L300.66 670.164L300.65 670.172C299.376 671.29 298.109 672.401 296.811 673.497C296.716 673.591 296.663 673.719 296.663 673.852C296.663 673.986 296.716 674.114 296.811 674.208Z" fill="#09B1D9"/>
<path d="M73.9428 684.161C73.7696 684.155 73.6117 684.06 73.5251 683.91C71.8959 681.735 70.2667 679.435 68.6792 677.093C68.4968 676.876 68.4968 676.558 68.6792 676.341C68.8894 676.139 69.2211 676.139 69.4312 676.341C71.0186 678.641 72.6478 680.941 74.2353 683.157C74.3297 683.251 74.3827 683.379 74.3827 683.513C74.3827 683.646 74.3297 683.774 74.2353 683.868C74.2043 683.966 74.1464 684.053 74.0682 684.119L73.9428 684.161Z" fill="#09B1D9"/>
<path d="M283.526 684.579C283.659 684.64 283.811 684.64 283.944 684.579L284.069 684.537C284.109 684.558 284.151 684.572 284.195 684.579C286.534 682.948 288.79 681.275 290.962 679.602C291.056 679.508 291.11 679.38 291.11 679.247C291.11 679.114 291.056 678.986 290.962 678.892C290.868 678.797 290.74 678.744 290.607 678.744C290.474 678.744 290.346 678.797 290.252 678.892C288.297 680.397 286.274 681.869 284.214 683.367L284.213 683.368L283.526 683.868C283.432 683.962 283.379 684.09 283.379 684.223C283.379 684.357 283.432 684.485 283.526 684.579Z" fill="#09B1D9"/>
<path d="M269.949 693.821C269.774 693.824 269.612 693.727 269.532 693.57C269.437 693.476 269.384 693.348 269.384 693.215C269.384 693.081 269.437 692.953 269.532 692.859C271.955 691.354 274.336 689.848 276.592 688.343C276.686 688.248 276.813 688.195 276.947 688.195C277.08 688.195 277.208 688.248 277.302 688.343C277.396 688.437 277.449 688.565 277.449 688.698C277.449 688.831 277.396 688.959 277.302 689.054C275.046 690.559 272.665 692.064 270.242 693.57L269.949 693.821Z" fill="#09B1D9"/>
<path d="M83.927 697.292C84.0615 697.343 84.2102 697.343 84.3447 697.292L84.7207 697.375C84.9223 697.165 84.9223 696.833 84.7207 696.623C83.7864 695.42 82.8402 694.301 81.8947 693.182C81.0648 692.2 80.2355 691.219 79.4153 690.183C79.2423 689.963 78.9243 689.926 78.7052 690.099C78.486 690.272 78.4486 690.59 78.6216 690.81C80.3761 693.11 82.1307 695.243 83.927 697.292Z" fill="#09B1D9"/>
<path d="M255.621 702.226C255.429 702.211 255.257 702.101 255.161 701.934C255.034 701.679 255.125 701.368 255.37 701.223C257.835 699.885 260.299 698.505 262.639 697.041C262.843 696.865 263.145 696.865 263.349 697.041C263.443 697.135 263.496 697.263 263.496 697.396C263.496 697.53 263.443 697.658 263.349 697.752L256.038 701.934L255.621 702.226Z" fill="#09B1D9"/>
<path d="M95.5403 709.503C95.6478 709.545 95.7671 709.545 95.8745 709.503V709.461C95.9928 709.521 96.1323 709.521 96.2505 709.461C96.3568 709.374 96.4184 709.243 96.4184 709.106C96.4184 708.968 96.3568 708.838 96.2505 708.75C94.3289 706.952 92.3655 704.861 90.4021 702.77C90.1919 702.568 89.8602 702.568 89.6501 702.77C89.5439 702.857 89.4823 702.988 89.4823 703.126C89.4823 703.263 89.5439 703.394 89.6501 703.481C91.6274 705.572 93.5909 707.579 95.5403 709.503Z" fill="#09B1D9"/>
<path d="M240.749 709.921C240.552 709.923 240.372 709.808 240.289 709.628C240.219 709.502 240.206 709.352 240.254 709.216C240.302 709.08 240.406 708.971 240.54 708.917L247.976 705.154C248.141 704.994 248.388 704.955 248.594 705.057C248.799 705.158 248.919 705.378 248.893 705.606C248.867 705.834 248.701 706.022 248.477 706.074C245.971 707.37 243.506 708.625 240.958 709.837L240.749 709.921Z" fill="#09B1D9"/>
<path d="M225.125 716.696C225.194 716.892 225.377 717.025 225.585 717.03L225.794 716.988L233.397 713.476C233.623 713.443 233.805 713.271 233.851 713.047C233.897 712.822 233.798 712.593 233.602 712.474C233.407 712.354 233.157 712.37 232.979 712.514C231.198 713.376 229.396 714.195 227.588 715.017C226.851 715.352 226.114 715.688 225.376 716.027C225.253 716.081 225.158 716.183 225.111 716.309C225.064 716.434 225.069 716.574 225.125 716.696Z" fill="#09B1D9"/>
<path d="M108.616 720.459C108.521 720.491 108.418 720.491 108.323 720.459C107.034 719.466 105.803 718.443 104.526 717.382L104.518 717.376C103.647 716.652 102.754 715.911 101.807 715.148C101.587 714.964 101.559 714.636 101.744 714.417C101.928 714.197 102.256 714.169 102.475 714.354L102.943 714.758C104.907 716.457 106.821 718.112 108.95 719.623C109.058 719.718 109.12 719.855 109.12 719.999C109.12 720.143 109.058 720.281 108.95 720.376C108.824 720.45 108.671 720.466 108.532 720.418L108.616 720.459Z" fill="#09B1D9"/>
<path d="M209.836 723.345C209.908 723.533 210.095 723.651 210.295 723.638L210.504 723.596C213.094 722.55 215.642 721.463 218.232 720.334C218.355 720.279 218.45 720.178 218.498 720.052C218.545 719.926 218.539 719.787 218.483 719.665C218.356 719.423 218.078 719.302 217.815 719.372C215.266 720.501 212.676 721.589 210.086 722.634C209.826 722.765 209.715 723.079 209.836 723.345Z" fill="#09B1D9"/>
<path d="M122.569 729.534H122.318C120.117 728.356 117.915 727.04 115.745 725.743L115.091 725.352C114.915 725.148 114.915 724.845 115.091 724.641C115.185 724.547 115.313 724.494 115.446 724.494C115.579 724.494 115.707 724.547 115.801 724.641C118.14 726.189 120.563 727.61 122.944 728.823C123.121 729.027 123.121 729.33 122.944 729.534C122.818 729.566 122.685 729.551 122.569 729.492V729.534Z" fill="#09B1D9"/>
<path d="M194.254 729.576C194.323 729.772 194.506 729.905 194.713 729.91L194.922 729.869L202.692 726.774C202.947 726.66 203.074 726.37 202.985 726.105C202.87 725.85 202.581 725.723 202.316 725.812L194.546 728.907C194.407 728.941 194.292 729.038 194.235 729.169C194.178 729.3 194.185 729.451 194.254 729.576Z" fill="#09B1D9"/>
<path d="M179.09 735.807C178.855 735.814 178.647 735.658 178.588 735.431C178.504 735.154 178.651 734.86 178.923 734.761C180.12 734.389 181.359 733.934 182.599 733.478L182.638 733.466L182.64 733.465L186.818 731.918C186.945 731.864 187.089 731.864 187.215 731.92C187.342 731.975 187.44 732.08 187.486 732.211C187.555 732.336 187.562 732.486 187.505 732.617C187.448 732.748 187.333 732.845 187.194 732.88L183.016 734.469C181.763 734.929 180.468 735.389 179.215 735.765L179.09 735.807Z" fill="#09B1D9"/>
<path d="M130.046 733.172C132.625 734.274 135.26 735.238 137.942 736.058V736.016C138.205 736.087 138.483 735.965 138.61 735.723C138.69 735.435 138.522 735.135 138.234 735.054C135.594 734.248 133.001 733.299 130.464 732.211C130.187 732.117 129.884 732.242 129.754 732.503C129.665 732.768 129.791 733.058 130.046 733.172Z" fill="#09B1D9"/>
<path d="M162.672 738.985C162.395 738.985 162.171 738.76 162.171 738.483C162.146 738.348 162.183 738.208 162.272 738.102C162.361 737.997 162.493 737.937 162.63 737.94C165.435 737.75 168.225 737.387 170.985 736.852C171.273 736.801 171.549 736.985 171.612 737.271C171.636 737.404 171.605 737.541 171.527 737.652C171.448 737.762 171.328 737.836 171.194 737.856C168.434 738.399 165.644 738.776 162.839 738.985H162.672Z" fill="#09B1D9"/>
<path d="M154.317 738.985C151.515 738.817 148.725 738.482 145.962 737.982C145.819 737.962 145.692 737.883 145.612 737.762C145.532 737.642 145.507 737.494 145.545 737.354C145.565 737.22 145.639 737.1 145.749 737.022C145.859 736.943 145.996 736.912 146.129 736.936C148.892 737.438 151.682 737.773 154.484 737.94C154.625 737.939 154.759 737.998 154.854 738.101C154.95 738.204 154.997 738.343 154.986 738.483C154.978 738.645 154.898 738.794 154.769 738.891C154.64 738.988 154.474 739.023 154.317 738.985Z" fill="#09B1D9"/>
<path d="M276.55 413.384C276.621 413.42 276.7 413.434 276.777 413.427C276.936 413.525 277.139 413.526 277.302 413.426C277.503 413.216 277.503 412.883 277.302 412.673C275.815 411.118 274.145 409.564 272.519 408.05L272.51 408.042C272.084 407.645 271.661 407.251 271.244 406.86C271.034 406.659 270.703 406.659 270.492 406.86C270.398 406.954 270.345 407.082 270.345 407.216C270.345 407.349 270.398 407.477 270.492 407.571C271.733 408.813 273.083 410.091 274.445 411.382L274.447 411.383L274.447 411.384C275.149 412.048 275.854 412.716 276.55 413.384Z" fill="#09B1D9"/>
<path d="M238.326 380.64H238.618C238.741 380.641 238.86 380.596 238.953 380.514C239.047 380.42 239.1 380.292 239.1 380.159C239.1 380.026 239.047 379.898 238.953 379.804C236.697 378.131 234.441 376.458 232.143 374.827C231.908 374.742 231.646 374.829 231.508 375.037C231.369 375.245 231.39 375.521 231.559 375.705C233.814 377.294 236.112 378.967 238.326 380.64Z" fill="#09B1D9"/>
<path d="M196.05 353.458C193.599 352.12 191.135 350.823 188.656 349.569C188.508 349.493 188.403 349.354 188.37 349.191C188.338 349.028 188.381 348.859 188.489 348.732C188.551 348.606 188.663 348.511 188.798 348.471C188.933 348.431 189.079 348.45 189.199 348.523C191.622 349.736 194.128 351.074 196.593 352.412C196.688 352.506 196.741 352.634 196.741 352.768C196.741 352.901 196.688 353.029 196.593 353.123C196.568 353.268 196.475 353.393 196.343 353.458H196.05Z" fill="#09B1D9"/>
<path d="M125.827 327.823C128.668 328.241 131.425 328.785 134.182 329.37C134.446 329.422 134.704 329.256 134.767 328.994C134.818 328.706 134.634 328.429 134.349 328.366C131.467 327.739 128.668 327.237 125.994 326.777C125.861 326.753 125.724 326.784 125.613 326.863C125.503 326.942 125.43 327.062 125.409 327.196C125.357 327.483 125.542 327.76 125.827 327.823Z" fill="#09B1D9"/>
<path d="M92.055 326.575C92.1504 326.662 92.2783 326.705 92.4072 326.694H92.3655C95.1226 326.401 97.9215 326.15 100.72 326.15C100.861 326.151 100.995 326.092 101.09 325.989C101.186 325.885 101.233 325.747 101.222 325.606C101.202 325.338 100.989 325.125 100.72 325.105C97.8797 325.188 95.0808 325.397 92.3655 325.69C92.2276 325.688 92.096 325.748 92.007 325.853C91.918 325.958 91.8809 326.098 91.9059 326.234C91.9054 326.363 91.9595 326.487 92.055 326.575Z" fill="#09B1D9"/>
</svg>
