<svg width="145" height="147" viewBox="0 0 145 147" fill="none" xmlns="http://www.w3.org/2000/svg">
<rect width="145" height="147" rx="23" fill="#1B1E76"/>
<path d="M79.624 30H62.1358C53.2156 30.0498 46 37.2956 46 46.2024V48.5671C49.6578 43.233 55.6711 40.0636 62.1358 40.0636H79.624C92.8523 40.0636 104.078 50.0767 104.729 62.4048C105.08 68.9462 102.774 75.186 98.3145 79.9155C94.2055 84.243 88.8942 86.809 83.031 87.2622C80.1249 91.086 78.521 95.6654 78.521 100.396V101.049C78.822 99.2387 80.1249 97.8294 81.8287 97.3258C90.8984 97.1743 99.317 93.5013 105.58 86.8595C111.995 80.1168 115.202 71.2106 114.751 61.9011C113.799 44.34 98.0644 30 79.624 30Z" fill="white"/>
<path d="M83.148 87.5392C80.2327 91.3625 78.6237 95.9412 78.6237 100.671V101.324C78.5739 101.627 78.5739 102.029 78.5739 102.381C78.5739 111.638 71.2346 118.984 62.287 118.984C53.2889 118.984 46 111.638 46 102.683V48.8494C49.6693 43.516 55.7017 40.347 62.1867 40.347C58.8181 40.3975 56.0535 43.1134 56.0535 46.485V102.683C56.0535 106.104 58.8181 108.921 62.287 108.921C65.7047 108.921 68.5198 106.104 68.5198 102.683C68.1182 95.6396 73.2452 89.0486 80.4338 87.6395L81.3883 87.589C81.9923 87.589 82.595 87.589 83.148 87.5392Z" fill="#DBDBDB"/>
<path d="M83.148 87.2533C81.971 90.4759 81.5435 93.9 81.8643 97.3234C80.0451 97.8273 78.654 99.2375 78.3325 101.049V100.395C78.3325 95.6619 80.0451 91.0796 83.148 87.2533Z" fill="#7C7C7C"/>
<path d="M61.8223 40.347C55.4833 40.347 49.5867 43.4322 46 48.6246C49.0482 46.5583 52.4959 45.1481 56.1217 44.4855C56.9068 42.1057 59.1731 40.3866 61.8223 40.347Z" fill="#7C7C7C"/>
</svg>
