<svg width="145" height="216" viewBox="0 0 145 216" fill="none" xmlns="http://www.w3.org/2000/svg">
<rect x="108" y="185" width="31" height="31" rx="8" fill="#0091FF"/>
<rect x="74" y="185" width="31" height="31" rx="8" fill="#0091FF"/>
<rect x="41" y="185" width="31" height="31" rx="8" fill="#0091FF"/>
<rect x="7" y="185" width="31" height="31" rx="8" fill="#0091FF"/>
<path d="M118.074 195.426C119.438 197.133 121.461 198.205 123.66 198.386C123.46 197.555 123.663 196.68 124.21 196.017C124.757 195.355 125.586 194.98 126.453 195.003C127.26 194.966 128.043 195.274 128.602 195.849C129.231 195.834 129.836 195.61 130.32 195.214C130.143 195.813 129.764 196.335 129.246 196.695C129.778 196.697 130.3 196.551 130.75 196.272C130.467 196.941 129.926 197.473 129.246 197.752C129.363 199.863 128.607 201.93 127.15 203.484C125.693 205.037 123.659 205.944 121.512 205.998C119.912 206.032 118.34 205.59 117 204.73C118.433 204.746 119.843 204.38 121.082 203.672C119.955 203.498 118.989 202.785 118.504 201.769C118.943 201.781 119.381 201.709 119.793 201.558C118.534 201.165 117.615 200.096 117.43 198.809C117.827 199.033 118.265 199.177 118.719 199.232C117.578 198.294 117.304 196.677 118.074 195.426Z" fill="#E8E8E8"/>
<path fill-rule="evenodd" clip-rule="evenodd" d="M84 196C84 195.419 84.4096 195 85 195C85.5904 195 86 195.419 86 196C86 196.581 85.5904 197 85 197C84.4096 197 84 196.581 84 196ZM84 206V198H86V206H84ZM88 198.088V206H90.0074V202.103C90.0074 200.941 90.6071 200.088 91.6108 200.074C92.4711 200.074 92.9926 200.691 92.9926 201.691V206H95V201.029C95 199.176 93.9963 198 92.432 198C91.3371 198.015 90.5028 198.485 90.0074 199.471V198.088H88Z" fill="white"/>
<path d="M57.8645 206V200.991H59.6387L59.8919 199.036H57.8645V197.815C57.8645 197.265 58.0547 196.837 58.8782 196.837H59.9549V195.066C59.7017 195.066 59.0683 195.005 58.3708 195.005C57.6572 194.959 56.9585 195.217 56.4588 195.711C55.9591 196.204 55.7086 196.884 55.7731 197.571V199.036H54V200.991H55.7742V205.999L57.8645 206Z" fill="#E8E8E8"/>
<path fill-rule="evenodd" clip-rule="evenodd" d="M22.498 195.012C21.7468 194.985 20.9947 195.005 20.246 195.072C19.7869 195.07 19.3312 195.153 18.9017 195.315C18.5302 195.434 18.1936 195.642 17.9212 195.921C17.6427 196.192 17.4345 196.527 17.3148 196.897C17.1224 197.319 17.039 197.783 17.0722 198.246C17.005 198.995 16.9847 199.747 17.0115 200.498C16.9846 201.25 17.0049 202.003 17.0722 202.753C17.0707 203.211 17.1529 203.666 17.3148 204.094C17.4345 204.464 17.6427 204.799 17.9212 205.07C18.1921 205.348 18.527 205.556 18.8966 205.676C19.3272 205.842 19.7846 205.927 20.246 205.928C20.9957 205.995 21.7488 206.015 22.501 205.988C23.2533 206.015 24.0064 205.995 24.7561 205.928C25.2143 205.929 25.6688 205.846 26.0974 205.684C26.8414 205.428 27.426 204.843 27.6823 204.099C27.8458 203.669 27.929 203.213 27.9279 202.753C27.9279 202.515 27.9372 202.342 27.9485 202.132V202.132C27.9661 201.805 27.9886 201.388 27.9886 200.498C28.0153 199.747 27.9951 198.995 27.9279 198.246C27.929 197.788 27.8465 197.333 27.6843 196.905C27.5634 196.531 27.3524 196.194 27.0698 195.921C26.7988 195.643 26.464 195.434 26.0944 195.315C25.6658 195.153 25.2112 195.071 24.7531 195.072C24.0034 195.005 23.2502 194.985 22.498 195.012ZM22.498 195.987C23.23 195.959 23.963 195.98 24.6924 196.048C25.0462 196.043 25.3976 196.105 25.7285 196.231C26.1849 196.443 26.5518 196.81 26.7645 197.267C26.8898 197.598 26.9519 197.95 26.9475 198.304C26.9475 198.512 26.9562 198.668 26.9671 198.861V198.861V198.861V198.861C26.9848 199.176 27.0081 199.591 27.0081 200.498C27.0357 201.23 27.0155 201.964 26.9475 202.693C26.9518 203.047 26.8897 203.399 26.7645 203.729C26.5516 204.185 26.1847 204.552 25.7285 204.764C25.3979 204.89 25.0468 204.952 24.6934 204.947C24.485 204.947 24.3293 204.956 24.1363 204.967L24.1362 204.967L24.1361 204.967H24.1361H24.1361H24.1361C23.8209 204.985 23.406 205.008 22.499 205.008C21.767 205.036 21.034 205.015 20.3046 204.947C19.9509 204.952 19.5995 204.89 19.2686 204.764C18.8114 204.552 18.4438 204.185 18.2305 203.728C18.1054 203.398 18.0434 203.047 18.0476 202.693C18.0476 202.485 18.0388 202.329 18.028 202.136C18.0102 201.821 17.9869 201.406 17.9869 200.499C17.9593 199.767 17.9796 199.034 18.0476 198.305C18.0433 197.951 18.1053 197.599 18.2305 197.269C18.3372 197.044 18.4814 196.839 18.6571 196.662C18.7993 196.45 19.0155 196.298 19.2635 196.236C19.5944 196.11 19.9458 196.048 20.2996 196.053C21.0302 195.983 21.7646 195.961 22.498 195.987ZM20.502 198.502C21.0305 197.973 21.7507 197.682 22.498 197.694C24.0466 197.694 25.3019 198.949 25.3019 200.498C25.3019 202.047 24.0466 203.302 22.498 203.302C20.9495 203.302 19.6941 202.047 19.6941 200.498C19.682 199.751 19.9735 199.03 20.502 198.502ZM22.498 202.327C22.0102 202.336 21.5398 202.146 21.1949 201.801C20.8501 201.456 20.6604 200.986 20.6695 200.498C20.6607 200.01 20.8505 199.54 21.1953 199.195C21.5402 198.85 22.0104 198.661 22.498 198.669C22.9856 198.661 23.4559 198.85 23.8007 199.195C24.1456 199.54 24.3354 200.01 24.3265 200.498C24.3354 200.986 24.1456 201.456 23.8007 201.801C23.4559 202.146 22.9856 202.335 22.498 202.326V202.327ZM24.7541 197.572C24.7541 197.202 25.0541 196.902 25.4242 196.902C25.793 196.905 26.0911 197.203 26.0944 197.572C26.0944 197.942 25.7943 198.242 25.4242 198.242C25.0541 198.242 24.7541 197.942 24.7541 197.572Z" fill="#E8E8E8"/>
<rect width="145" height="147" rx="23" fill="#1B1E76"/>
<path d="M79.624 30H62.1358C53.2156 30.0498 46 37.2956 46 46.2024V48.5671C49.6578 43.233 55.6711 40.0636 62.1358 40.0636H79.624C92.8523 40.0636 104.078 50.0767 104.729 62.4048C105.08 68.9462 102.774 75.186 98.3145 79.9155C94.2055 84.243 88.8942 86.809 83.031 87.2622C80.1249 91.086 78.521 95.6654 78.521 100.396V101.049C78.822 99.2387 80.1249 97.8294 81.8287 97.3258C90.8984 97.1743 99.317 93.5013 105.58 86.8595C111.995 80.1168 115.202 71.2106 114.751 61.9011C113.799 44.34 98.0644 30 79.624 30" fill="white"/>
<path d="M83.148 87.5392C80.2327 91.3625 78.6237 95.9412 78.6237 100.671V101.324C78.5739 101.627 78.5739 102.029 78.5739 102.381C78.5739 111.638 71.2346 118.984 62.287 118.984C53.2889 118.984 46 111.638 46 102.683V48.8494C49.6693 43.516 55.7017 40.347 62.1867 40.347C58.8181 40.3975 56.0535 43.1134 56.0535 46.485V102.683C56.0535 106.104 58.8181 108.921 62.287 108.921C65.7047 108.921 68.5198 106.104 68.5198 102.683C68.1182 95.6396 73.2452 89.0486 80.4338 87.6395L81.3883 87.589C81.9923 87.589 82.595 87.589 83.148 87.5392" fill="#DBDBDB"/>
<path d="M83.148 87.2533C81.971 90.4759 81.5435 93.9 81.8643 97.3234C80.0451 97.8273 78.654 99.2375 78.3325 101.049V100.395C78.3325 95.6619 80.0451 91.0796 83.148 87.2533" fill="#7C7C7C"/>
<path d="M61.8223 40.347C55.4833 40.347 49.5867 43.4322 46 48.6246C49.0482 46.5583 52.4959 45.1481 56.1217 44.4855C56.9068 42.1057 59.1731 40.3866 61.8223 40.347" fill="#7C7C7C"/>
</svg>
