<svg width="20" height="12" viewBox="0 0 20 12" fill="none" xmlns="http://www.w3.org/2000/svg">
<path d="M19.2326 0H15.8705C15.6082 0 15.3957 0.207742 15.3957 0.464042V1.03596C15.3957 1.29226 15.6082 1.50001 15.8705 1.50001H17.3799L13.3512 5.43751H10.1679C9.95276 5.43751 9.74753 5.52576 9.60217 5.68071L5.08208 10.5H0.474799C0.212558 10.5 0 10.7077 0 10.964V11.536C0 11.7923 0.212558 12 0.474799 12H5.41968C5.63477 12 5.84 11.9118 5.98536 11.7568L10.5054 6.93752H13.6691C13.8726 6.93752 14.0678 6.85851 14.2117 6.71784L18.4652 2.5607V4.03597C18.4652 4.29227 18.6778 4.50002 18.94 4.50002H19.5252C19.7874 4.50002 20 4.29227 20 4.03597V0.74998C20 0.335802 19.6564 0 19.2326 0Z" fill="#09B1D9"/>
</svg>
